<?xml version="1.0" encoding="UTF-8"?><svg xmlns="http://www.w3.org/2000/svg" width="252.49" height="238.98" viewBox="0 0 252.49 238.98"><g id="a"><rect x="-.02" y=".29" width="252" height="239" fill="#fff"/></g><g id="b"><g><path d="m81.97,85.73c-2.04,1.48-3.95,3.09-5.72,4.78-7.84,7.53-11.55,18.39-12.27,29.04-.06.94-.1,1.87-.13,2.81-.63,27.67,15.49,44.22,42.04,50.33,9.3,2.14,18.85,1.69,28.28.8,9.3-.88,18.68-2.64,27.03-7.01,24.31-12.74,35.3-46.78,21.28-70.76-7.29-12.46-21.08-22.26-35.71-23.13-8.37-.49-16.49,2.78-24.81,3.28-6.92.42-13.93-.13-20.78,1.17-6.92,1.32-13.53,4.55-19.2,8.68Z" fill="#ea5520"/><path d="m120.01,82.74s-17.26-.61-21.19-1.12c0,0-.74,5.66,14.18,7.95l-13.14,10.14s16.81-4.11,19.7-5.08l1.93,13.65s6.09-2.51,9.09-15.82c0,0,18.16.86,20.07.48,1.92-.38-10.99-5.11-12.81-6.78,0,0,7.23-4.33,9.38-9.61l-20.65,4.9-.67-17.06s-7.98,1.36-9.28,2.09c0,0,4.14,10.28,3.39,16.25Z" fill="#43b149"/><path d="m85.64,93.03c-2-.71-4.7.53-5.39,2.99-.81,2.86,1.97,4.71,4.58,4.24,2.11-.38,3.43-2.53,2.96-4.61-.32-1.43-1.15-2.27-2.15-2.63Z" fill="#fff"/><path d="m80.12,104.26c-2.43-.76-5.26,1.46-6.29,3.49-2.86,5.66-3.74,13.37-3.03,19.64.63,5.58,3.9,6.53,5.58,6.43,3.69-.23,2.26-5.96,2.21-8.28-.07-3.2.08-6.44.93-9.54.85-3.11,2.87-5.94,2.51-9.3-.08-.74-.38-1.48-.97-1.93-.3-.23-.61-.39-.94-.49Z" fill="#fff"/></g></g></svg>