<?xml version="1.0" encoding="UTF-8"?><svg xmlns="http://www.w3.org/2000/svg" width="252.49" height="238.98" viewBox="0 0 252.49 238.98"><g id="a"><rect x="-.02" y=".29" width="252" height="239" fill="#fff"/></g><g id="b"><g><g><path d="m183.23,49.11c-1.41-.67-3.05-.37-3.68,1.79-1.27,4.37,5.43,7.56,6.02,2.07.18-1.66-.98-3.21-2.34-3.86Z" fill="#ffe200"/><path d="m182.21,53.32s-3.58-1.14-4.9,2.97c-1.51,4.7,3.38,5.89,3.42,5.9,6.11,1.48,7.29-7.67,1.48-8.87Z" fill="#ffe893"/><path d="m181.46,59.59s-4.5-1.87-5.71,3.21c-1.21,5.08,4.11,5.82,4.11,5.82,0,0,4.47,1.15,5.43-3.1,1.1-4.88-3.83-5.92-3.83-5.92Z" fill="#ffe200"/><path d="m180.21,65.92c-2.6-.7-5.53.06-6.67,3.03-1.93,5.03,3.96,6.99,3.96,6.99,0,0,5.58,2.21,7.15-3.31.94-3.34-1.53-5.93-4.44-6.71Z" fill="#fdd000"/><path d="m179.4,72.51c-3.03-1.45-6.85-1.09-8.06,2.44-1.7,4.95,1.69,6.93,4.16,8.07,2.47,1.15,6.48.6,7.69-3.27.96-3.06-1.09-5.96-3.78-7.25Z" fill="#ffe200"/><path d="m176.44,79.01s-6.57-2.78-8.52,3.21c-1.95,5.99,5.35,7.96,5.35,7.96,0,0,5.68,2.25,8.02-3.53,2.17-5.35-4.85-7.64-4.85-7.64Z" fill="#ffe893"/><path d="m174.48,86.98s-6.38-3.39-9.48,2.56c-3.11,5.94,4.16,8.72,4.16,8.72,0,0,6.46,3.34,9.05-2.03,3.22-6.66-3.73-9.24-3.73-9.24Z" fill="#ffe200"/><path d="m171.04,96.37s-8.23-4.04-10.5,4.09c0,0-1.09,4.81,5.78,7.6,6.84,2.78,8.97-1.33,9.46-2.45.49-1.12,2.65-5.77-4.74-9.23Z" fill="#fdd000"/><path d="m106.49,196.91c-1.33-.82-1.97-2.36-.49-4.06,2.98-3.44,9.3.47,5,3.94-1.3,1.05-3.23.92-4.51.13Z" fill="#ffe200"/><path d="m109.48,193.77s-2.9-2.39-.16-5.73c3.13-3.82,6.79-.35,6.81-.33,4.55,4.33-2.5,10.28-6.65,6.06Z" fill="#ffe893"/><path d="m114.34,189.74s-4.01-2.77-.4-6.53c3.61-3.77,7.12.3,7.12.3,0,0,3.39,3.13.34,6.24-3.51,3.57-7.05-.01-7.05-.01Z" fill="#ffe200"/><path d="m118.98,185.26c-1.99-1.81-2.95-4.68-1.07-7.25,3.18-4.34,8.02-.46,8.02-.46,0,0,4.88,3.5,1.09,7.8-2.29,2.6-5.82,1.93-8.04-.09Z" fill="#fdd000"/><path d="m124.08,181.01c-2.86-1.76-4.63-5.16-2.32-8.1,3.24-4.11,6.74-2.33,9.04-.88,2.3,1.45,4.01,5.12,1.42,8.23-2.05,2.47-5.6,2.31-8.14.75Z" fill="#ffe200"/><path d="m127.94,175s-5.9-4.02-1.92-8.9c3.98-4.88,9.59.18,9.59.18,0,0,4.97,3.55,1.38,8.65-3.32,4.73-9.05.06-9.05.06Z" fill="#ffe893"/><path d="m133.58,169.03s-6.3-3.52-2.99-9.36c3.31-5.83,9.59-1.23,9.59-1.23,0,0,6.31,3.62,3.2,8.71-3.86,6.32-9.79,1.87-9.79,1.87Z" fill="#ffe200"/><path d="m139.61,161.06s-7.85-4.73-2.26-11.04c0,0,3.45-3.52,9.52.74,6.04,4.24,3.74,8.26,3.06,9.28-.68,1.02-3.41,5.35-10.32,1.02Z" fill="#ffe200"/><path d="m151.38,141.55s-8.23-4.04-10.5,4.09c0,0-1.09,4.81,5.78,7.6,6.84,2.78,8.97-1.33,9.46-2.45.49-1.12,2.65-5.77-4.74-9.23Z" fill="#ffe893"/><path d="m155.86,131.92s-8.23-4.04-10.5,4.09c0,0-1.09,4.81,5.78,7.6,6.84,2.78,8.97-1.33,9.46-2.45.49-1.12,2.65-5.77-4.74-9.23Z" fill="#ffe200"/><path d="m167.78,105.81s-7.45-3.5-10.15,2.4c-2.7,5.9,4.73,8.62,4.73,8.62,0,0,7.28,3.98,9.87-3.93,1.56-4.75-4.45-7.09-4.45-7.09Z" fill="#ffe200"/><path d="m164.46,113.82s-7.35-3.8-9.96,3.93c0,0-1.82,5.46,4.47,8.07,0,0,7.23,3.39,9.75-2.86,2.52-6.26-4.25-9.13-4.25-9.13Z" fill="#ffe893"/><path d="m161,121.89s-7.45-3.5-10.15,2.4c-2.7,5.9,4.73,8.62,4.73,8.62,0,0,7.28,3.98,9.87-3.92,1.56-4.75-4.45-7.09-4.45-7.09Z" fill="#ffe200"/><path d="m180.76,41.65c-1.78-1.58-4.36-2.33-6.48-1.25-2.29,1.17-2.29,4.62-.67,6.39,2.8,3.05,7.52,3.84,8.87.89.99-2.16.01-4.49-1.73-6.03Z" fill="#ffe200"/><path d="m177.76,47.17c-.28-.17-.58-.32-.89-.47-3.05-1.45-6.04-1-7.24,1.85-2.15,5.12,3.9,7.73,3.99,7.77,2.78,1.19,5.99.82,7.14-1.72,1.31-2.91-.05-5.68-3.01-7.43Z" fill="#ffe893"/><path d="m174.26,53.29c-.13-.06-.26-.12-.4-.17-2.78-1.14-6.14-1.04-7.57,1.58-2.26,4.14,1.33,7.18,4.49,8.63,3.16,1.45,7.03,1.45,7.98-2.35.87-3.44-1.16-6.18-4.5-7.69Z" fill="#ffe893"/><path d="m172.11,60.51s-5.22-3.31-7.92,1.06c-2.69,4.37.88,6.81,3.05,8.23,2.17,1.42,6.42,2.62,8.38-.67,1.63-2.72,1.35-5.73-3.52-8.62Z" fill="#ffe200"/><path d="m169.02,67.27s-6.45-3.24-8.97,2.15c-3.35,7.16,11.52,13.93,13.97,6.52,1.38-4.2-.95-6.88-4.99-8.67Z" fill="#fed505"/><path d="m166.01,75.46c-3.47-1.71-7.8-1.55-9.26,2.13-2.24,5.65,5.34,8.68,5.34,8.68,0,0,6.66,2.84,8.44-2.72,1.09-3.42-1.35-6.53-4.52-8.09Z" fill="#fdd000"/><path d="m164.48,82.09c-3.83-2.48-8.93-3.33-11.16.77-2.96,5.43,2.69,9.59,7.77,11.11,4.17,1.25,6.42-.88,7.12-3.13.87-2.81.11-5.79-2.52-7.88-.39-.31-.79-.6-1.21-.87Z" fill="#ffe200"/><path d="m161.35,90.81s-8.76-5.44-11.9,1.59c-3.14,7.03,5.94,10.4,5.94,10.4,0,0,7.55,4.11,10.11-3.52,1.9-5.67-4.15-8.46-4.15-8.46Z" fill="#ffe893"/><path d="m156.1,99.03s-7.6-4.43-10.98,1.65c-3.37,6.08,3.94,10.52,6.74,11.73,2.81,1.2,8.21,2.55,10.33-3.68,2.12-6.22-6.09-9.7-6.09-9.7Z" fill="#fed505"/><path d="m152.51,107.84c-.34-.18-.68-.35-1.03-.51-3.92-1.8-8.66-2.51-10.63,1.4-1.49,2.95-1.7,6.4,1.19,9.2,2.77,2.68,6.81,4.45,10.59,4.34,4.09-.13,7.33-3.04,6.47-7.16-.67-3.21-3.61-5.71-6.59-7.27Z" fill="#ffe200"/><path d="m148.42,116.31s-9.41-4.68-12.14,1.96c-2.73,6.64,3.06,9.26,6.41,11.14,3.35,1.89,9.64,2.61,11.61-1.95,1.97-4.56-.53-8.69-5.88-11.16Z" fill="#ffe200"/><path d="m144.35,124.14s-8.55-4.16-11.3,2.24c-2.76,6.4,5.49,10.59,8.59,11.69,3.1,1.1,8.94,2.21,10.36-4.28,1.42-6.48-7.65-9.64-7.65-9.64Z" fill="#ffe200"/><path d="m139.96,132.63s-9.13-4.01-11.65,2.48c-2.52,6.49,6.29,10.55,9.58,11.59,3.29,1.04,9.43,2.05,10.55-4.52,1.12-6.55-8.48-9.55-8.48-9.55Z" fill="#fed505"/><path d="m138.61,139.64c-.34-.18-.68-.35-1.03-.51-3.92-1.8-8.66-2.51-10.63,1.4-1.49,2.95-1.7,6.4,1.19,9.2,2.77,2.68,6.81,4.45,10.59,4.34,4.09-.13,7.33-3.04,6.47-7.16-.67-3.21-3.61-5.71-6.59-7.27Z" fill="#ffe200"/><path d="m99.09,197.94c-2.52-.76-4.74-2.75-4.95-5.37-.23-2.83,3.01-4.85,5.62-4.35,4.5.86,8,4.83,6.01,7.83-1.46,2.19-4.21,2.63-6.68,1.89Z" fill="#fed505"/><path d="m102.31,192.26c-.32-.17-.64-.36-.96-.56-3.14-2.02-4.46-5.1-2.48-7.88,3.56-5.01,9.55-.84,9.64-.78,2.74,1.92,4.27,5.16,2.55,7.72-1.97,2.93-5.38,3.26-8.74,1.5Z" fill="#ffe893"/><path d="m106.03,185.41c-.13-.09-.26-.18-.39-.27-2.7-1.95-4.56-5.17-2.93-8.04,2.58-4.54,7.53-2.94,10.73-.81,3.2,2.13,5.46,5.76,2.45,8.88-2.74,2.82-6.49,2.51-9.86.25Z" fill="#ffe893"/><path d="m111.56,179.17s-6.16-2.98-3.62-8.06c2.54-5.08,6.92-3.14,9.52-1.93,2.61,1.22,6.21,4.51,4.26,8.28-1.61,3.12-4.61,4.62-10.16,1.71Z" fill="#ffe200"/><path d="m116.12,172.32s-6.81-4.18-3.21-9.7c4.79-7.33,19.82,2.71,14.28,9.34-3.14,3.75-7.03,3.12-11.07.36Z" fill="#fed505"/><path d="m122.08,164.71c-3.64-2.27-6.01-6.44-3.39-9.96,4.02-5.4,11.28-.04,11.28-.04,0,0,6.55,4.61,2.36,9.53-2.57,3.02-6.93,2.53-10.25.47Z" fill="#fdd000"/><path d="m127.42,159.41c-4.56-2.16-8.34-6.46-5.78-10.95,3.38-5.95,10.59-3.06,14.99.84,3.6,3.19,2.92,6.55,1.21,8.52-2.14,2.46-5.38,3.48-8.88,2.23-.51-.18-1.03-.39-1.53-.63Z" fill="#ffe200"/><path d="m156.38,28.99s-1.63-2.52-5.09-.58c-1.97,1.11-2.31,3.17-1.16,4.67,1.15,1.5,3.03,1.9,5.1-.14,2.63-2.58,1.15-3.96,1.15-3.96Z" fill="#ffe200"/><path d="m152.51,31.72c-.61-.99-1.68-1.67-3.19-1.62-2.57.08-6.04,2.34-5.51,5.28.33,1.82,1.84,3.75,3.71,4.14,2.05.43,3.8-1.36,4.8-2.93.98-1.53,1.02-3.5.18-4.86Z" fill="#ffe893"/><path d="m147.28,37.04c-1.68-1.88-4.57-3.14-6.38-1.74-2.59,2-3.74,4.66-.15,8.09,1.52,1.46,3.72,1.99,5.57.74,1.37-.93,2.36-2.57,2.3-4.26-.03-.93-.55-1.94-1.34-2.82Z" fill="#ffe200"/><path d="m142.21,40.7c-.93-.84-1.91-1.63-3.1-2.07-2.47-.91-4.78.96-5.86,3.09-1.37,2.69.72,5.89,2.83,7.52,2.66,2.05,6,.82,7.7-1.79,1.68-2.58.57-4.82-1.57-6.74Z" fill="#ffe893"/><path d="m137.02,46.2c-2.2-1.89-5.21-2.98-7.62-1.06-1.76,1.4-3.18,3.43-2.57,5.77.77,2.9,5.21,7.24,8.45,6.01,3.01-1.14,5.79-5.31,3.77-8.41-.52-.8-1.23-1.61-2.04-2.31Z" fill="#fdd000"/><path d="m132.11,52.33c-1.66-1.31-3.66-2.19-5.66-2.26-2.38-.08-3.73,1.27-4.92,3.16-2.46,3.92-1.67,7.24,2.02,10,2.05,1.53,4.82,2.9,7.33,1.63,2.25-1.14,4.66-5,4.64-7.46-.01-2.04-1.92-3.9-3.41-5.07Z" fill="#ffe893"/><path d="m125.11,59.69c-.86-.48-1.72-.87-2.47-1.16-3.44-1.36-5.31-.83-8.1,3.6-3.19,5.05.76,7.55,4.57,9.95,2.24,1.42,4.95,1.94,7.14.16,1.86-1.51,4.15-5.65,3.39-8.07-.57-1.83-2.54-3.37-4.52-4.48Z" fill="#ffe200"/><path d="m119.69,67.43s-7.26-3.87-10.13,1.37c-2.87,5.24-2.6,7.59,3.39,11.38,5.99,3.79,8.85,1.35,10.62-1.79s3.07-7.29-3.87-10.96Z" fill="#ffe200"/><path d="m114.28,76.8c-.89-.5-1.78-.91-2.57-1.22-3.57-1.44-5.48-.94-8.28,3.49-3.19,5.05.93,7.65,4.89,10.16,2.33,1.47,5.13,2.05,7.35.29,1.89-1.5,4.16-5.64,3.34-8.1-.62-1.86-2.67-3.46-4.74-4.61Z" fill="#fdd000"/><path d="m109.27,83.89c-1.36-.82-2.84-1.61-4.33-1.83-3.68-.53-5.59,3.83-6.57,6.79-1.17,3.5,1.03,5.79,3.8,7.39,2.49,1.74,7.37,4.21,10.14,1.49,1.7-1.68,2.81-4.16,2.87-6.53.07-3.13-2.13-4.98-4.53-6.46-.44-.27-.9-.56-1.37-.85Z" fill="#ffe200"/><path d="m105.86,92.47s-7.26-3.87-10.13,1.37c-2.87,5.24-2.6,7.59,3.39,11.38,5.99,3.79,8.85,1.35,10.62-1.79s3.07-7.29-3.87-10.96Z" fill="#ffe200"/><path d="m102.8,100.21c-.86-.48-1.72-.87-2.47-1.16-3.44-1.36-5.31-.83-8.1,3.6-3.19,5.05.77,7.55,4.57,9.95,2.24,1.42,4.95,1.94,7.14.16,1.86-1.51,4.15-5.65,3.39-8.07-.57-1.83-2.54-3.37-4.52-4.48Z" fill="#ffe893"/><path d="m99.35,108.4s-7.26-3.87-10.13,1.37c-2.87,5.24-2.6,7.59,3.39,11.38,5.99,3.79,8.85,1.35,10.62-1.79,1.77-3.14,3.07-7.29-3.87-10.96Z" fill="#ffe200"/><path d="m93.54,115.8c-.97-.3-1.93-.52-2.76-.67-3.79-.67-5.56.21-7.38,5.1-2.08,5.58,2.49,7.28,6.88,8.92,2.58.96,5.44.95,7.25-1.22,1.54-1.85,2.91-6.36,1.6-8.59-.99-1.69-3.33-2.83-5.59-3.54Z" fill="#fdd000"/><path d="m163.27,28.24c-2.48-1.36-5.27-1.08-6.55,1.06-1.31,2.18-.32,4.51,1.97,6.2,1.26.93,2.92,1.74,4.4,1.36,1.87-.48,3.3-3.05,3.1-4.9-.16-1.53-1.39-2.87-2.92-3.71Z" fill="#ffe200"/><path d="m160.85,33.02c-.19-.14-.39-.28-.6-.41-1.94-1.24-4.38-1.99-6.27.01-4.36,4.61,2.54,9.51,6.52,8.32,1.61-.48,2.57-2.32,2.65-3.92.09-1.69-1.01-3.05-2.31-4.01Z" fill="#fed505"/><path d="m156.97,37.8c-.07-.05-.14-.09-.21-.14-2.97-1.9-5.66-2.46-7.79.83-2.06,3.19-.11,5.83,2.65,7.74,2.54,1.76,5.66,1.69,7.53-1.02,1.98-2.88.38-5.69-2.18-7.42Z" fill="#ffe200"/><path d="m153.32,44.04c-3.04-2.43-7.09-3.39-9.73.43-4.03,5.84.37,8.33,2.83,9.9,2.88,1.84,5.9,2.09,8.05-.9,1.85-2.57,2.76-5.4.4-7.99-.47-.52-1-1.01-1.55-1.45Z" fill="#ffe200"/><path d="m147.52,51.2s-6.23-5.15-9.7.15c-3.47,5.31-1.71,8.29,2.24,10.57,3.96,2.28,8.31,2.72,10.66-1.86,2.35-4.58-1.81-7.92-3.21-8.86Z" fill="#ffe200"/><path d="m142.38,58.8c-.75-.46-1.51-.85-2.17-1.17-2.61-1.26-5.89-1.72-7.8.84-3.35,4.5-2.97,8.04,3.09,11.96,2.67,1.72,6.49,2.7,8.71-.16,1.14-1.46,2.74-4.05,2.62-5.99-.14-2.34-2.29-4.18-4.45-5.49Z" fill="#fed505"/><path d="m136.91,66.49s-6.76-4.88-10.26.01c-3.5,4.9-1.51,8.22,3.59,11.45,5.1,3.23,8.87,2.74,10.78-1.03,1.91-3.76,2.33-6.16-4.12-10.44Z" fill="#ffe893"/><path d="m132.88,74.41s-7.67-5.26-10.7.04c-3.04,5.31-2.38,8.71,4.12,12.41,6.5,3.7,8.83,1.45,10.49-1.88,1.66-3.33,3.03-6.29-3.9-10.57Z" fill="#fed505"/><path d="m127.92,83.6s-8.5-5.23-11.18.04c-3.31,6.52-.65,9.68,4.94,12.39,5.59,2.71,8.77,1.33,10.64-2.2,1.87-3.53,2.01-6.67-4.4-10.23Z" fill="#ffe200"/><path d="m123.25,91.33s-8.23-5.22-11.34.77c-3.2,6.17-2.36,8.68,4.63,12.69,6.99,4.01,10.24,1.35,11.65-1.81,1.41-3.16,3.7-6.47-4.94-11.64Z" fill="#ffe200"/><path d="m117.99,101.61c-2.12-1.14-4.76-2.26-7.06-1.94-2.52.36-3.55,3.07-4.02,5.12-.35,1.52-.3,3.1.79,4.58.71.95,1.68,1.73,2.69,2.41,2.32,1.56,5.6,3.23,8.31,3.26,2.54.03,4.39-1.43,5.28-3.45.68-1.55.78-3.55-.17-5.3-1.12-2.04-3.78-3.57-5.82-4.67Z" fill="#ffe893"/><path d="m112.59,108.79c1.14.54,2.22,1.18,3.15,1.77,2.19,1.42,4.37,3.43,4.77,5.82.46,2.76-1.66,5.49-4.39,6.26-2.59.72-5.53-.4-7.93-1.83-4.34-2.58-7.06-6.33-5.16-10.56,1.6-3.57,5.82-3.24,9.57-1.46Z" fill="#fed505"/><path d="m110.02,116.1c-2.12-1.43-4.79-2.92-7.19-2.89-2.64.03-3.9,2.66-4.53,4.68-.47,1.5-.53,3.11.51,4.75.67,1.06,1.62,1.98,2.62,2.8,2.3,1.89,5.59,4.01,8.41,4.39,2.64.36,4.65-.89,5.72-2.83.82-1.49,1.06-3.51.19-5.41-1.02-2.22-3.68-4.12-5.73-5.5Z" fill="#ffe200"/><path d="m173.29,31.47c-2.01-1.19-4.48-1.69-6.37-.59-1.8,1.05-3.7,3.93-2.74,6.11,1,2.25,4.07,3.85,6.22,4.87,1.77.84,3.72,1.14,5.17-.15,2.28-2.02,2.14-5.82.09-8.26-.63-.75-1.45-1.44-2.37-1.98Z" fill="#ffe200"/><path d="m170.33,37.72s-7.28-4.78-9.88.6c-2.6,5.38,1.86,8.26,4.98,9.97,3.13,1.72,6.64,2.35,8.69-2.43,2.05-4.78-3.79-8.14-3.79-8.14Z" fill="#fdd000"/><path d="m166.63,43.86s-6.7-4.78-9.69-.05c-3.11,4.91-.37,7.48,4.31,10.39,4.69,2.91,7.75,2.98,9.49,0,1.73-2.98,2.38-6.24-4.11-10.33Z" fill="#ffe200"/><path d="m162.44,51.24s-6.91-4.8-9.85-.48c-2.94,4.32-1.68,7.86,3.93,11.22,5.61,3.37,8.5,1.57,10.2-1.46,1.7-3.03,1.1-5.77-4.28-9.29Z" fill="#fdd000"/><path d="m159.67,58.06s-7.64-5.65-11.42-.56c-4.15,5.59,1.22,10.07,4.95,12.13,3.73,2.06,8.82,4.04,11.55-.52,2.73-4.56-1.53-8.83-5.08-11.05Z" fill="#ffe200"/><path d="m155.21,65.55s-7.8-5.93-12-.08c-3.94,5.49-1.13,9.42,4.87,12.94s10.34,3.65,12.91-1.61c2.05-4.21-.58-8.04-5.77-11.26Z" fill="#ffe893"/><path d="m150.45,75.88s-9.11-6.53-13.15.11c-4.04,6.64.93,10.1,5.78,13.01,4.85,2.91,9.9,4.5,12.78-1.03.96-1.84,1.66-4.22.56-6.56-1.08-2.3-3.77-4.1-5.98-5.54Z" fill="#ffe200"/><path d="m87.27,193.29c2.01,1.2,4.47,1.71,6.37.62,1.8-1.04,3.72-3.91,2.77-6.09-.98-2.26-4.05-3.88-6.19-4.9-1.77-.85-3.71-1.16-5.17.12-2.29,2-2.18,5.81-.14,8.26.63.75,1.45,1.44,2.36,1.99Z" fill="#ffe893"/><path d="m90.27,187.06s7.25,4.82,9.88-.55c2.63-5.37-1.81-8.27-4.93-10-3.12-1.73-6.63-2.38-8.7,2.39s3.75,8.16,3.75,8.16Z" fill="#fdd000"/><path d="m94,180.94s6.67,4.82,9.69.11c3.13-4.89.42-7.48-4.26-10.41-4.67-2.93-7.74-3.02-9.49-.05-1.75,2.97-2.42,6.22,4.06,10.36Z" fill="#ffe200"/><path d="m98.23,173.58s6.88,4.84,9.85.53c2.96-4.31,1.73-7.85-3.87-11.25-5.59-3.4-8.49-1.62-10.21,1.4-1.72,3.02-1.13,5.76,4.23,9.31Z" fill="#ffe893"/><path d="m101.03,166.78s7.61,5.69,11.42.62c4.18-5.57-1.17-10.08-4.89-12.16-3.72-2.08-8.8-4.09-11.55.45-2.75,4.54,1.48,8.84,5.02,11.08Z" fill="#ffe200"/><path d="m144.05,86s-8.23-5.5-12.16.95c-3.94,6.45,1.8,10.44,6.51,12.94,4.71,2.5,9.05,2.41,11.16-1.61,2.11-4.01,1.73-8.09-5.51-12.28Z" fill="#ffe200"/><path d="m139.51,95.29c-4.56-2.41-9.94-4.56-12.1,1.05-1.99,5.17.23,8.95,5.46,11.82,6.18,3.39,10.46,2.23,12.54-2.13,2.08-4.36-.07-7.65-5.89-10.73Z" fill="#ffe200"/><path d="m135.49,103.36c-4.88-2.57-10.47-3.24-12.6,2.47-3.21,8.6,6.89,12.01,6.89,12.01,0,0,9.45,5.28,12.67-2.41,2.13-5.08-2.25-9.58-6.96-12.07Z" fill="#fed505"/><path d="m130.35,112.85c-4.82-2.59-10.7-2.86-12.63,1.97-3.09,7.78,5.81,11.46,5.86,11.48,4.56,1.88,10.4,3.25,12.88-1.18,2.56-4.58-1.35-9.71-6.11-12.27Z" fill="#ffe200"/><path d="m126.23,121.63s-9.3-5.89-12.44.81c-3.14,6.7,2.34,11.66,6.04,13.83,3.7,2.18,10.82,3.04,13.27-2.35,2.45-5.4-1.5-8.92-6.88-12.29Z" fill="#ffe200"/><path d="m90.23,124.72s-7.92-2.21-9.59,3.53c-1.67,5.74-.89,7.98,5.77,10.38,6.66,2.4,8.93-.6,9.98-4.05,1.04-3.45,1.42-7.78-6.15-9.86Z" fill="#ffe200"/><path d="m105.72,123.89c-2.12-1.14-4.76-2.26-7.06-1.94-2.52.36-3.55,3.07-4.02,5.12-.35,1.52-.3,3.1.79,4.58.71.95,1.68,1.73,2.69,2.41,2.32,1.56,5.6,3.23,8.31,3.26,2.54.03,4.39-1.43,5.28-3.45.68-1.55.78-3.55-.17-5.3-1.12-2.04-3.78-3.57-5.82-4.67Z" fill="#ffe893"/><path d="m122.4,131.06s-8.17-6.04-12.22-.6c-4.44,5.98,1.31,10.78,5.3,12.98,3.99,2.2,9.43,4.32,12.35-.56,2.92-4.87-1.64-9.45-5.43-11.82Z" fill="#ffe200"/><path d="m85.7,134.2c-3.01-.62-6.37-.16-7.63,2.66-.92,2.06-1.22,4.53.55,6.3,2.19,2.19,8.53,3.92,10.93,1.3,2.22-2.43,2.69-7.42-.77-9.2-.9-.46-1.96-.84-3.08-1.07Z" fill="#fdd000"/><path d="m83.96,143.46c-1.8-.63-3.77-.87-5.48-.48-2.04.47-2.77,1.8-3.2,3.51-.88,3.55.8,5.92,4.76,7.21,2.2.72,4.97,1.16,6.7-.37,1.56-1.37,2.42-4.86,1.65-6.74-.63-1.56-2.82-2.56-4.44-3.13Z" fill="#ffe893"/><path d="m81.07,151.56c-1.2-.34-2.43-.62-3.69-.49-2.62.28-3.86,2.97-3.89,5.36-.04,3.02,3.25,4.96,5.87,5.49,3.3.66,5.74-1.92,6.11-5.01.36-3.05-1.62-4.57-4.39-5.35Z" fill="#ffe893"/><path d="m79.88,159.52c-2.24-1.16-5.39-1.32-6.58.63-1.71,2.79-1.84,5.68,2.72,7.62,1.94.82,4.18.55,5.47-1.28.95-1.36,1.29-3.24.65-4.8-.36-.86-1.21-1.62-2.25-2.16Z" fill="#ffe200"/><path d="m75.72,180.03s3,.19,3.49-3.75c.28-2.24-1.17-3.74-3.06-3.71-1.89.03-3.33,1.3-2.93,4.18.51,3.65,2.49,3.28,2.49,3.28Z" fill="#ffe200"/><path d="m75.82,175.28c1.16.1,2.34-.36,3.2-1.6,1.47-2.11,1.72-6.25-.96-7.57-1.66-.82-4.11-.75-5.54.52-1.56,1.39-1.17,3.86-.5,5.6.65,1.7,2.21,2.9,3.8,3.04Z" fill="#ffe893"/><path d="m99.97,132.25c1.21.37,2.37.84,3.37,1.29,2.37,1.08,4.83,2.74,5.58,5.05.86,2.66-.83,5.68-3.42,6.83-2.45,1.09-5.53.42-8.12-.64-4.67-1.91-7.92-5.22-6.66-9.68,1.06-3.77,5.27-4.06,9.25-2.86Z" fill="#fed505"/><path d="m98.1,141.35s-7.24-3.57-9.23,1.73c-2,5.29.42,7.66,4.78,9.04,4.35,1.38,8.63,1.06,9.73-3.4,1.1-4.46-3.7-6.76-5.27-7.37Z" fill="#ffe200"/><path d="m80.42,186.08c2.98.89,5.78.08,6.47-2.34.7-2.46-1.02-4.63-3.89-5.9-1.59-.7-3.54-1.19-4.96-.52-1.79.84-2.5,3.73-1.75,5.57.62,1.52,2.3,2.64,4.13,3.19Z" fill="#ffe200"/><path d="m81.22,180.39c.24.1.48.2.74.3,2.38.88,5.13,1.17,6.49-1.23,3.14-5.51-5.47-9.14-9.24-7.17-1.53.8-1.97,2.85-1.58,4.48.42,1.73,1.96,2.89,3.59,3.61Z" fill="#fed505"/><path d="m84.1,175.69c.08.03.17.07.25.1,3.64,1.35,6.6,1.4,7.82-2.36,1.18-3.63-1.63-5.93-5.06-7.33-3.16-1.29-6.36-.62-7.49,2.49-1.19,3.3,1.3,5.84,4.48,7.1Z" fill="#ffe200"/><path d="m85.8,169.11c3.88,1.87,8.35,2.06,9.94-2.32,2.43-6.7-2.87-8.37-5.88-9.49-3.53-1.31-6.73-.98-8.07,2.47-1.15,2.96-1.24,6.01,1.97,8.17.65.43,1.33.83,2.04,1.17Z" fill="#fed505"/><path d="m89.68,160.73s7.99,4.01,9.99-2.03c2-6.05-.7-8.73-5.48-10.28-4.78-1.55-9.42-1.15-10.48,3.95-1.06,5.1,4.24,7.68,5.97,8.36Z" fill="#ffe200"/><path d="m117.06,138.56c-4.88-2.57-10.47-3.24-12.6,2.47-3.21,8.6,6.89,12.01,6.89,12.01,0,0,9.45,5.28,12.67-2.41,2.13-5.08-2.25-9.58-6.96-12.07Z" fill="#fdd000"/><path d="m113.13,147.35c-4.82-2.59-10.7-2.86-12.63,1.97-3.09,7.78,5.81,11.46,5.86,11.48,4.56,1.88,10.4,3.25,12.88-1.18,2.56-4.58-1.35-9.71-6.11-12.27Z" fill="#ffe200"/></g><path d="m78.33,189.99l-5.68,12.33s12.26,8.51,21.81,10.49l5.66-12.08-21.79-10.74Z" fill="#abc10d"/><path d="m91.64,189.25c1.41-7.5,6.3-15,10.35-21.25,4.53-6.98,9.84-13.48,15.98-19.1,2.52-2.3,5.19-4.44,8.02-6.34,23.58-15.84,49.24-26.08,64.29-25.82,0,0-18.33,14.87-32.44,37.69-14.11,22.83-28.84,45.59-45.25,50.1-6.16,1.69-14.03-.08-18.5-4.77-2.47-2.6-3.12-6.32-2.58-9.78.04-.25.08-.5.13-.74Z" fill="#c4d700"/><path d="m89.55,60.57s26.06,50.84,23.6,84.01c-2.46,33.17-10.17,48.47-15.35,53.8-5.18,5.32-39.59-3.87-35.22-31.54,5.7-36.08,30.65-68.38,26.97-106.27Z" fill="#abcd03"/></g></g></svg>