<?xml version="1.0" encoding="UTF-8"?><svg xmlns="http://www.w3.org/2000/svg" width="252.49" height="238.98" viewBox="0 0 252.49 238.98"><g id="a"><rect x="-.02" y=".29" width="252" height="239" fill="#fff"/></g><g id="b"><g><g><polygon points="93.21 65.33 88.35 37.03 99.84 36 98.59 65.29 93.21 65.33" fill="#aa8534"/><path d="m164.92,98.63c.98,16.26-.23,35.63-9.84,49.45-4.82,6.93-12.24,11.6-20.76,12.08-7.05.39-19.87-4.08-19.87-4.08,0,0-5.46,7.16-19.24,6.98-11.82-.16-18.43-5.98-18.47-6.01-.96-.84-15.47,2.88-17.98,2.89-6.18.03-11.23-.61-16.02-4.77-14.34-12.47-17.83-39-16.48-56.61,1.34-17.52,8.47-30.23,27.78-34.64,13.19-3.01,19.73-.65,19.73-.65,0,0,9.03-7.28,22.67-7.25,14.01.03,20.15,6.3,20.16,6.31.11.15,7.04-2.22,18.72-1.61,20.42,1.06,28.45,19.66,29.57,37.7,0,.07,0,.13.01.2Z" fill="#387d39"/><path d="m49.44,75.54s-11.3,4.02-11.3,38.06,20.38,35.17,20.38,35.17c0,0-17.39-15.29-16.9-33.18.5-17.89,2.48-26.68,7.82-40.05Z" fill="#74a455"/><path d="m71.49,74.37s-10.74,7.02-9.99,37.78c.75,30.77,15.48,38.47,15.48,38.47,0,0-9.51-17.64-9.26-36.28.25-18.64.85-20.56,3.78-39.98Z" fill="#74a455"/><path d="m94.6,69.88s-5.68,16.95-5.02,43.6c.67,26.65,6.67,40.22,6.67,40.22,0,0,.35-26.8,0-47.11-.35-20.31-1.66-36.7-1.66-36.7Z" fill="#74a455"/><path d="m118.5,74.27s3.95,32.58.66,48.95c-3.28,16.38-4.74,27.41-4.74,27.41,0,0,11.05-14,12.24-39.55,1.18-25.55-8.16-36.81-8.16-36.81Z" fill="#74a455"/><path d="m140.76,71.67s7.96,18.14,4.72,44.45c-3.23,26.31-8.7,34.51-8.7,34.51,0,0,13.83-9.42,15.61-37.01,1.78-27.59-11.64-41.94-11.64-41.94Z" fill="#74a455"/></g><g><path d="m108.35,115.97s-17.69,6.41-18.8,29.86,12.83,45.34,23.67,49.1,31.98-2.43,44.97,3.54c12.98,5.97,34.22,6.64,52.13-5.53,17.92-12.16,17.47-44.01,14.82-52.86-3.59-11.96-13.43-18.11-25.34-19.49-8.48-.98-16.85-2.85-24.21-7.35-5.27-3.22-11.48-3.64-17.59-2.57-11.38,1.99-14.03,3.98-23.1,2.65-9.07-1.33-17.25-1.55-26.54,2.65Z" fill="#387d39"/><path d="m216.28,141.19c-7.3-15.04-23.67-13.71-32.07-12.61s-22.34,6.64-33.62-.88c-11.28-7.52-24.99-11.06-35.83-4.42-10.84,6.64-18.47,17.96-16.59,38.04,1.68,17.92,9.47,28.35,14.97,33.59.02,0,.05.02.07.03,10.84,3.76,31.98-2.43,44.97,3.54,11.59,5.33,29.77,6.42,46.28-2.06,19.88-19.38,19-40.44,11.82-55.22Z" fill="#f1bd24"/><path d="m156.79,127.92s1.99,2.43,7.52,1.33l2.32-12.28s-5.64-2.76-10.73-.55l.88,11.5Z" fill="#aa8534"/><path d="m144.22,135.59c-.39-.25-.81-.49-1.28-.7-9.48-4.38-20.07,1.43-24.58,10.16-7.14,13.82.68,38.53,18.74,38.2,4.4-.08,8.43-2.76,8.84-7.34.58-6.5-3.69-12.23-2.74-18.58.97-6.44,8.98-16.52,1.02-21.74Z" fill="#e88121"/><path d="m177.13,138.67c-4.34.1-8.57,1.7-10.8,5.43-2.65,4.44-1.1,10.03-.18,14.73.89,4.55.53,8.18-1.17,12.54-1.71,4.41-2.14,9.75,1.69,13.19,4.25,3.82,11.18,4.52,16.45,2.74,5.84-1.98,9.9-7.52,12.18-13,3.5-8.39,3.98-17.91-.93-25.86-1.89-3.06-4.48-5.71-7.63-7.49-2.65-1.5-6.16-2.36-9.61-2.28Z" fill="#e88121"/><path d="m174.42,150.36s10.01-8.62,12.11-3.13c2.14,5.61-12.11,3.13-12.11,3.13Z" fill="#f4cf41"/><path d="m174.72,159.79s4.22-2.4,7.96-2.5c3.74-.09,4.41,1.44,4.32,3.07s-1.73,3.26-5.56,2.3c-3.84-.96-6.71-2.88-6.71-2.88Z" fill="#f4cf41"/><path d="m174.95,168.04s5.12-.84,8.38,0c3.26.84,3.6,2.31,2.98,4-.65,1.77-4.47,1.3-6.61,0-2.14-1.3-4.75-4-4.75-4Z" fill="#f4cf41"/><path d="m172.49,176.43s1.44,4.29,4.64,6.01c1.6.86,4.49,1.46,5.56-.53,1.18-2.17-1.42-4.26-3.24-4.83-3.54-1.11-6.97-.66-6.97-.66Z" fill="#f4cf41"/><path d="m138.21,146.94s-1.88-3.54-5.31-4.64c-2.53-.82-5.05-.65-5.86,1.44-1,2.54,2.42,4.12,4.69,4.12,4.15,0,6.48-.92,6.48-.92Z" fill="#f4cf41"/><path d="m136.66,155.11s-2.99-2.81-5.81-3.47c-2.82-.66-5.06-.31-5.64,1.74-.63,2.22,1.66,4.07,4.98,3.9,3.32-.17,6.47-2.17,6.47-2.17Z" fill="#f4cf41"/><path d="m136.66,163.45s-2.99-1.81-6.55-2.25c-3.57-.44-5.06.47-5,2.54.07,2.31,2.9,2.74,5.78,2.16,2.87-.58,5.78-2.45,5.78-2.45Z" fill="#f4cf41"/><path d="m138.81,170.11s-4.2-.72-7.93.19c-3.38.83-4.41,2.71-3.27,4.31,1.24,1.74,4.69.66,7.3-.8,3.07-1.72,3.9-3.71,3.9-3.71Z" fill="#f4cf41"/></g></g></g></svg>