<svg xmlns="http://www.w3.org/2000/svg" xmlns:xlink="http://www.w3.org/1999/xlink"  viewBox="0 0 338.156 192.445"><defs><linearGradient id="a" x1="0.5" x2="0.5" y2="1" gradientUnits="objectBoundingBox"><stop offset="0" stop-color="#00a2ff"/><stop offset="1" stop-color="#063454"/></linearGradient></defs><g transform="translate(-550.922 -259.342)"><path d="M127.831,4.281,123.017,0,118.2,4.281C116.491,5.8,76.17,42.049,76.17,88.073s40.3,82.273,42.033,83.792l4.814,4.281,4.814-4.281c1.712-1.519,42.033-37.769,42.033-83.792S129.544,5.8,127.831,4.281ZM123.017,156.2c-10.048-10.581-32.308-37.478-32.308-68.122s22.261-57.541,32.308-68.122c10.048,10.581,32.308,37.478,32.308,68.122S133.065,145.614,123.017,156.2Z" transform="translate(597.807 259.342)" fill="url(#a)"/><path d="M96.638,70.221C62.811,39.043,8.823,44.1,6.545,44.325l-6.413.646L0,51.417c-.048,2.294-.711,56.507,33.116,87.685,25.136,23.165,61.37,26.331,79.285,26.331,6.2,0,10.209-.388,10.807-.436l6.413-.646.129-6.446c.048-2.294.711-56.508-33.116-87.685Zm-53.648,58.2C20.454,107.65,15.769,73.048,14.8,58.493c14.6-.226,49.448,1.648,71.983,22.422s27.22,55.377,28.189,69.932c-14.587.21-49.448-1.648-71.983-22.422Z" transform="translate(550.927 286.354)" fill="url(#a)"/><path d="M258.754,51.418l-.129-6.446-6.413-.646c-2.278-.226-56.249-5.3-90.092,25.9C128.292,101.4,128.954,155.613,129,157.907l.129,6.446,6.413.646c.582.065,4.588.436,10.807.436,17.915,0,54.165-3.166,79.285-26.331,33.827-31.178,33.165-85.391,33.116-87.685Zm-42.97,77.007c-22.535,20.774-57.412,22.632-71.983,22.422.969-14.571,5.654-49.157,28.189-69.932s57.38-22.632,71.983-22.422C243,73.065,238.319,107.651,215.783,128.425Z" transform="translate(630.316 286.353)" fill="url(#a)"/></g></svg>