<?xml version="1.0" encoding="UTF-8"?><svg id="a" xmlns="http://www.w3.org/2000/svg" viewBox="0 0 362.27 250.04"><path d="m89.92,0h.15c.35,0,.71.03,1.06.05.43.02.85.06,1.29.1.44.04.87.09,1.31.17.2.03.4.09.6.12,2.31.47,4.54,1.28,6.62,2.41.22.12.43.22.65.34.71.41,1.41.85,2.12,1.34.71.5,1.39,1.06,2.02,1.67.19.18.37.37.55.56.48.5.95,1.02,1.4,1.58.18.23.36.47.54.71.61.83,1.17,1.69,1.68,2.58.41.71.81,1.44,1.19,2.21.73,1.51,1.38,3.06,1.95,4.65.1.27.19.54.28.81.19.56.38,1.14.56,1.72.08.26.16.51.23.77.85,2.91,1.54,5.87,2.06,8.86.05.29.11.58.16.88.05.32.11.65.16.97.07.42.13.84.2,1.27.14.91.26,1.83.38,2.76.04.31.08.63.12.94.15,1.29.29,2.59.42,3.91l.05.56c.06.69.12,1.38.17,2.07.03.37.06.73.08,1.1.02.24.03.47.05.71.02.29.04.59.06.88.03.5.06,1,.08,1.5l.04.75c.09,1.74.15,3.5.19,5.26,0,.4.02.81.02,1.21.04,2.55.05,5.1,0,7.63v.9c-.02.47-.03.94-.04,1.4-.01.52-.03,1.03-.04,1.55-.02.71-.05,1.42-.07,2.13-.01.31-.02.62-.04.93-.07,1.64-.15,3.25-.24,4.85-.02.31-.04.61-.06.92-.01.26-.03.51-.05.77l-.05.77c-.18,2.58-.38,5.1-.61,7.51-.04.48-.09.96-.14,1.43l-.03.34-.04.38v.02c-.02.21-.04.41-.07.61-.07.7-.15,1.4-.23,2.08-.04.32-.08.65-.11.97-.14,1.14-.28,2.25-.42,3.32-.04.28-.08.56-.11.83-.08.59-.16,1.17-.25,1.73-.06.37-.11.74-.16,1.1-.47,3.23-1.09,6.44-1.88,9.61-.08.32-.17.61-.25.89-.45,1.54-.88,2.48-1.24,2.71-.27.08-.54.12-.82.12-.24,0-.47-.03-.7-.08-.28-.03-.59-.09-.93-.15-.82-.15-1.82-.38-2.99-.68-.27-.07-.54-.14-.82-.22-2.02-.55-4.46-1.29-7.22-2.2-.17-.06-.34-.12-.52-.17-.35-.12-.7-.23-1.06-.36-.78-.26-1.58-.55-2.4-.83-2.2-.78-4.53-1.64-6.97-2.58-.24-.09-.48-.18-.72-.28l-.58-.23c-.31-.12-.63-.25-.95-.37-1.53-.61-3.09-1.24-4.67-1.9l-.79-.33c-1.29-.54-2.59-1.1-3.9-1.67l-.61-.27c-.55-.24-1.1-.48-1.65-.73-.29-.13-.59-.26-.88-.39-.86-.39-1.72-.78-2.58-1.19-.42-.19-.84-.39-1.27-.59-.34-.16-.67-.32-1.01-.48l-.23-.11-1.18-.56c-.34-.16-.68-.33-1.02-.49l-.04-.02c-.21-.1-.43-.2-.64-.31-1.7-.84-3.39-1.69-5.07-2.57-.33-.17-.65-.34-.98-.51-2-1.05-3.98-2.14-5.92-3.25-.2-.12-.41-.24-.61-.35-.4-.23-.79-.46-1.19-.69-.22-.13-.45-.27-.68-.4-1.19-.7-2.37-1.42-3.52-2.14l-.11-.07-.51-.32-.72-.46c-.41-.26-.81-.53-1.21-.79-.36-.23-.71-.46-1.06-.7-1.21-.81-2.38-1.63-3.52-2.45-.2-.14-.39-.29-.58-.43-2.97-2.15-5.78-4.5-8.43-7.03-.17-.16-.33-.32-.49-.49-.3-.3-.6-.59-.88-.89-.18-.19-.35-.38-.53-.57-2.66-2.71-4.84-5.85-6.46-9.28-.13-.28-.26-.57-.37-.85-.52-1.3-.89-2.65-1.1-4.03-.03-.21-.04-.43-.06-.64-.02-.2-.04-.4-.06-.6-.03-.3-.07-.6-.09-.89,0-.13-.02-.26-.03-.39,0-.15,0-.29,0-.44v-.23c-.04-1.29.01-2.58.17-3.86.03-.25.08-.5.12-.75.43-2.65,1.33-5.2,2.66-7.54.18-.32.37-.65.57-.96,3.84-6.04,10.32-10.11,17.01-12.14.22-.07.44-.14.66-.2.3-.08.59-.16.89-.24.1-.03.21-.05.31-.07,1.03-.25,2.07-.46,3.09-.62.13-.02.25-.03.38-.05l.15-.02.26-.03c1.32-.17,2.64-.26,3.97-.26.18,0,.35,0,.53,0,.78.01,1.54.07,2.28.15,2.6.21,5.1,1.03,7.32,2.4-.1-.88-.12-1.77-.03-2.65.03-.42.1-.85.17-1.28.38-2.06,1.04-4.05,1.97-5.92.08-.16.17-.33.25-.49.36-.71.76-1.41,1.19-2.11.39-.63.79-1.26,1.24-1.87.55-.78,1.16-1.55,1.8-2.3.23-.28.46-.55.71-.82.14-.16.29-.3.43-.46.22-.23.43-.47.66-.7.28-.29.58-.57.87-.85.17-.17.34-.34.52-.5,3.33-3.1,7.29-5.45,11.6-6.9.3-.09.61-.18.92-.27,1.88-.53,3.81-.83,5.76-.9.16,0,.32-.02.49-.02h.11s.04,0,.04,0m28.3,118.97c-.2,0-.39.04-.58.11-.54.33-1.21,2.26-1.92,5.36-.08.33-.15.68-.22,1.03-.53,2.47-1.06,5.56-1.56,9.12-.22,1.54-.43,3.17-.63,4.87-.31,2.63-.59,5.43-.85,8.37-.01.18-.03.36-.04.54-.08.89-.15,1.79-.21,2.71-.06.84-.12,1.68-.18,2.53l-.02.35-.04.71c-.04.61-.07,1.23-.11,1.84-.04.7-.07,1.4-.11,2.1-.09,1.86-.15,3.74-.2,5.64,0,.24-.01.48-.02.72-.01.63-.03,1.26-.04,1.89,0,.3,0,.6,0,.9,0,.22,0,.44,0,.66-.01,1.32-.01,2.65,0,3.99.01,1.45.04,2.91.08,4.37,0,.18.01.36.01.53.03.86.06,1.72.1,2.58.01.34.03.68.05,1.01v.18s.02.25.02.25c.07,1.24.14,2.48.22,3.71.09,1.31.2,2.6.33,3.89.09.92.18,1.83.28,2.73.1.91.22,1.8.34,2.69.21,1.52.44,3.01.69,4.47.08.43.15.87.23,1.3l.03.15c.02.11.04.22.07.34.28,1.42.58,2.81.91,4.16.07.29.14.58.22.87.05.2.11.4.16.59.07.27.15.54.22.81.21.76.43,1.52.67,2.26.08.25.16.49.24.72.37,1.11.76,2.18,1.17,3.22.13.31.26.62.39.93,1.11,2.69,2.58,5.21,4.37,7.5.28.35.57.69.87,1.02.61.67,1.26,1.3,1.96,1.88.21.17.42.33.64.49.14.1.27.21.4.31.56.4,1.13.75,1.69,1.09,1.36.83,2.8,1.52,4.3,2.07l.07.02c.12.04.25.07.37.12l.16.06c.4.13.81.27,1.22.39l.09.03c.45.12.9.21,1.35.3.77.16,1.54.28,2.32.35.22.02.45.04.67.05.3.02.6.03.89.03h.12s1.08,0,1.08,0h.16c2.53-.1,5.02-.59,7.4-1.44.17-.06.35-.13.52-.19,4.46-1.75,8.49-4.44,11.8-7.9.21-.21.41-.43.61-.65.79-.85,1.53-1.73,2.21-2.64.11-.14.22-.29.33-.43.31-.42.6-.84.89-1.27.25-.38.49-.75.72-1.13.16-.27.34-.54.49-.82.11-.19.2-.38.3-.57.43-.8.83-1.61,1.17-2.41.1-.23.18-.46.27-.7.22-.57.42-1.14.58-1.7.07-.25.15-.49.22-.73.02-.1.04-.19.06-.29.06-.26.12-.51.17-.76.1-.48.17-.96.22-1.42.11-.98.11-1.98,0-2.97.19.13.41.24.61.36.98.57,2.02,1.02,3.11,1.34.37.11.76.2,1.15.29,1.64.37,3.31.56,4.99.57.62,0,1.25-.01,1.89-.04.82-.04,1.65-.13,2.49-.24.43-.05.86-.12,1.3-.19l.31-.06c.12-.02.24-.04.36-.07.47-.09.94-.19,1.41-.3,1.71-.4,3.39-.93,5.03-1.57.87-.34,1.74-.73,2.59-1.15.38-.18.75-.38,1.13-.58.19-.1.37-.2.56-.3.32-.18.65-.37.96-.56,1.63-.99,3.15-2.12,4.57-3.39.2-.18.4-.37.6-.56.2-.19.4-.38.59-.58l.02-.02c.12-.12.24-.26.35-.38l.02-.02c.42-.45.82-.91,1.21-1.39.14-.16.27-.33.4-.5.39-.5.76-1.03,1.11-1.57.23-.35.45-.72.66-1.09.66-1.16,1.22-2.38,1.67-3.65.24-.68.45-1.38.63-2.1.6-2.44.81-4.96.63-7.46-.03-.46-.09-.93-.14-1.4-.03-.25-.04-.49-.08-.75-.58-3.33-1.91-6.47-3.9-9.21-.47-.69-.99-1.39-1.54-2.07-.69-.87-1.43-1.73-2.22-2.59-.56-.6-1.13-1.2-1.74-1.8l-.22-.23c-.21-.2-.42-.4-.64-.61-.67-.63-1.35-1.26-2.07-1.89-.11-.1-.22-.19-.33-.29-1.88-1.63-3.92-3.24-6.09-4.81-.38-.28-.78-.56-1.17-.84-1.16-.82-2.35-1.63-3.56-2.43-.28-.19-.57-.38-.85-.56h.01c-2.57-1.68-5.26-3.3-8.02-4.86-.32-.18-.63-.36-.95-.54l-.26-.15c-.4-.22-.8-.45-1.2-.67-.83-.46-1.67-.91-2.51-1.35-.3-.16-.6-.32-.91-.48-1.58-.84-3.18-1.65-4.78-2.45-.19-.1-.39-.19-.58-.29-1.97-.97-3.95-1.91-5.92-2.83-.54-.25-1.07-.49-1.61-.74-.7-.32-1.4-.64-2.1-.95-.53-.24-1.05-.47-1.58-.7-2.44-1.07-4.85-2.08-7.19-3.04-.17-.07-.35-.14-.52-.21-.36-.14-.71-.28-1.06-.43-.5-.2-.99-.39-1.48-.58-3.06-1.2-5.98-2.29-8.68-3.24-.19-.07-.38-.13-.56-.2-1.74-.61-3.4-1.17-4.93-1.66l-.06-.02-.15-.05c-1.66-.53-3.18-.99-4.55-1.38-.87-.25-1.69-.46-2.42-.65-.58-.14-1.11-.26-1.59-.36-.49-.1-.94-.18-1.34-.25-.36-.06-.72-.1-1.08-.11h-.17m60.26-98.12h-.14c-.17,0-.34,0-.51.01-.13,0-.26,0-.4,0-.64.02-1.29.07-1.96.15-.34.04-.67.06-1.02.11-1.34.2-2.64.55-3.9,1.04-.27.1-.53.22-.8.34-.17.07-.34.14-.51.22-.35.16-.69.33-1.03.51-1.45.77-2.85,1.65-4.16,2.64-.24.18-.47.36-.71.54l-.5.4c-.18.15-.36.29-.55.44h-.01c-.3.26-.6.52-.9.8-1.06.93-2.11,1.94-3.15,3.02-.14.14-.28.29-.42.44-.93.99-1.86,2.02-2.77,3.11-.25.3-.5.6-.75.91-1.99,2.44-3.95,5.1-5.85,7.92-.18.27-.36.54-.54.81h0c-.28.41-.55.83-.83,1.26-.14.21-.28.43-.41.64-.8,1.26-1.6,2.54-2.38,3.85l-.22.36c-.8,1.34-1.59,2.7-2.36,4.08-.1.18-.21.37-.31.55-.47.84-.93,1.7-1.39,2.55-.14.27-.29.54-.43.8-.77,1.45-1.53,2.9-2.27,4.37-.3.6-.6,1.2-.9,1.81-.23.46-.45.92-.67,1.38-.14.29-.29.59-.43.89-1.58,3.28-3.08,6.55-4.47,9.76-.08.18-.16.36-.24.54-1.67,3.85-3.18,7.6-4.54,11.12l-.1.26c-1.01,2.64-1.92,5.14-2.73,7.47-.08.23-.16.46-.24.68-.37,1.07-.71,2.09-1.03,3.07-.24.74-.47,1.46-.69,2.16-.04.13-.08.26-.12.39-.08.25-.15.49-.22.73-.84,2.58-1.49,5.22-1.92,7.9-.09.43-.08.88.04,1.31v.02c.41.66,3.19,1.52,7.6,2.4l.97.19c1.27.24,2.66.48,4.15.71.49.08.98.15,1.49.23,5.55.82,12.35,1.57,19.74,2.06.28.02.55.04.83.06,1.65.11,3.34.19,5.04.27.26,0,.51.02.77.03,1.33.06,2.67.1,4.01.14l.83.02c.16,0,.31,0,.47,0h.52s.12.01.12.01h.06c.98.02,1.97.03,2.95.04.24,0,.47,0,.71,0h1.94c.42,0,.84,0,1.26,0,1.34-.01,2.67-.04,4.01-.07.6-.02,1.19-.03,1.79-.05.44-.01.88-.03,1.32-.06h.1c.59-.02,1.17-.05,1.76-.08.74-.04,1.49-.08,2.23-.13.3-.02.61-.04.91-.06,1.77-.12,3.52-.27,5.25-.45.4-.04.79-.08,1.18-.13.98-.11,1.95-.22,2.91-.35.26-.03.51-.07.77-.11,4.51-.59,8.97-1.52,13.34-2.77.31-.09.62-.18.92-.28,1.53-.48,2.99-1,4.38-1.56.3-.12.59-.24.88-.37,1.89-.81,3.71-1.78,5.44-2.9.6-.4,1.19-.81,1.74-1.24.16-.13.3-.26.46-.39h.01s.04-.04.04-.04l.19-.16c.94-.8,1.81-1.68,2.58-2.65.22-.27.43-.54.63-.82.11-.16.2-.32.31-.48.43-.64.83-1.29,1.19-1.93.14-.25.26-.49.39-.74,1.34-2.55,2.19-5.33,2.51-8.2.05-.45.08-.91.1-1.36,0-.2.02-.4.02-.6v-.85c-.02-1.34-.16-2.68-.42-3.99-.03-.17-.07-.34-.11-.52l-.03-.13v-.07s-.02-.04-.02-.04l-.05-.25c-.85-3.44-2.32-6.7-4.34-9.61-.11-.16-.22-.33-.34-.49-.76-1.08-1.59-2.12-2.47-3.11-.29-.32-.59-.64-.89-.96-3.54-3.8-7.96-6.68-12.87-8.39-.18,0-.35-.06-.5-.15-1.09-.32-2.21-.54-3.34-.65-.34-.03-.67-.03-.99-.04-.1,0-.21,0-.31,0-.45,0-.9.03-1.35.08.44-.67.81-1.38,1.12-2.12.2-.48.38-.97.54-1.49.25-.83.44-1.68.58-2.54.06-.39.12-.79.16-1.2.06-.54.1-1.09.12-1.66.01-.28.03-.56.03-.85.01-1.25-.05-2.51-.2-3.75-.02-.21-.06-.44-.09-.66-.08-.59-.17-1.18-.28-1.77-.07-.38-.14-.75-.22-1.12-.02-.1-.05-.2-.07-.3-.12-.54-.26-1.07-.41-1.61-.2-.72-.43-1.44-.68-2.15-.08-.24-.16-.47-.25-.71-.13-.35-.27-.68-.4-1.02-.07-.18-.14-.36-.22-.53-.1-.23-.19-.46-.29-.69-.55-1.23-1.18-2.43-1.88-3.58-1.28-2.15-2.83-4.13-4.61-5.89-.22-.22-.45-.43-.69-.64-1.87-1.72-4-3.12-6.32-4.16-.31-.14-.62-.28-.94-.41l-.19-.07c-.25-.1-.51-.18-.76-.27-2.38-.8-4.88-1.21-7.39-1.21M59.91,111.48c-.22,0-.43,0-.65,0-1.66,0-3.32.02-4.98.06-1.35.03-2.7.07-4.04.13h-.17s-.54.03-.54.03c-1,.04-1.99.1-2.98.16-.33.02-.65.04-.98.07-1.03.07-2.07.15-3.09.24-.47.04-.94.08-1.41.13-1.78.17-3.54.37-5.26.6-.99.13-1.96.27-2.92.43-3.72.57-7.4,1.37-11.01,2.41l-.64.19c-.23.07-.45.14-.68.21-.57.18-1.13.37-1.69.56-2.58.88-5.07,2.01-7.43,3.38-.1.06-.19.11-.29.17-.18.11-.35.22-.52.33-.45.29-.89.58-1.31.88-.33.24-.65.47-.96.72-.21.16-.4.33-.6.5-1.22,1.02-2.31,2.19-3.24,3.49-.68.98-1.29,2-1.84,3.05-.09.17-.18.33-.26.5-.18.37-.35.73-.5,1.1-.17.4-.35.79-.49,1.18-.92,2.46-1.4,5.06-1.42,7.68v.35c0,.14,0,.27,0,.41,0,.32.02.64.04.96.18,2.55.75,5.05,1.69,7.43.15.17.24.39.25.62.05.11.1.22.15.33l.17.38c.46,1.02.97,2.01,1.53,2.97.83,1.41,1.76,2.75,2.78,4.02,1.21,1.51,2.55,2.92,3.99,4.21.11.1.21.19.32.28,4.99,4.37,10.83,7.08,15.66,7.08.5,0,.99-.03,1.46-.09l-.1.16c-.19.3-.38.61-.55.93-1.28,2.68-1.94,5.62-1.91,8.6v.65c0,.97.06,1.95.16,2.96.04.34.09.69.14,1.04.11.84.25,1.69.43,2.54.04.21.11.43.15.65.19.82.41,1.64.66,2.46.18.57.36,1.13.57,1.69.31.87.66,1.72,1.04,2.57.26.57.53,1.14.82,1.69.8,1.54,1.72,3,2.75,4.39.08.11.16.22.24.33l.02.02c1.4,1.83,3.03,3.48,4.85,4.89l.17.14.15.12c1,.75,2.06,1.42,3.17,2,.65.34,1.32.66,2.01.94,1.66.66,3.39,1.12,5.15,1.37.17.02.33.06.5.08.67.08,1.36.14,2.06.16.19,0,.38,0,.58,0,.16,0,.32,0,.48,0,.2,0,.4,0,.59-.01,1.07-.02,2.15-.11,3.21-.26,1.44-.22,2.84-.61,4.18-1.16,2.01-.84,3.92-1.91,5.67-3.2.2-.14.39-.28.58-.43,2.3-1.75,4.44-3.7,6.4-5.83.21-.22.41-.44.62-.67.11-.12.23-.25.34-.38.35-.39.69-.77,1.04-1.18.52-.6,1.04-1.23,1.56-1.86.59-.73,1.18-1.48,1.77-2.25.65-.86,1.3-1.74,1.94-2.64h0c.14-.19.28-.38.41-.57,3.84-5.54,7.34-11.31,10.47-17.28.14-.27.29-.54.43-.82,2.32-4.41,4.5-8.91,6.5-13.33.08-.18.17-.36.25-.55.52-1.14,1.02-2.28,1.51-3.41.08-.2.17-.4.26-.59.49-1.15.98-2.29,1.45-3.42.12-.29.25-.59.37-.88.07-.17.14-.34.21-.51.21-.52.43-1.04.64-1.56.15-.36.3-.73.44-1.1l.03-.09c.34-.84.66-1.67.98-2.49.08-.2.15-.39.23-.58.41-1.07.81-2.13,1.19-3.16.1-.26.2-.52.29-.78.17-.46.33-.92.5-1.37.13-.35.25-.7.37-1.04.17-.47.34-.94.49-1.4.06-.16.11-.3.16-.46.14-.41.29-.82.42-1.23.1-.3.2-.59.3-.89.47-1.39.89-2.71,1.27-3.94.13-.43.26-.85.38-1.25.09-.29.18-.59.26-.87.12-.41.23-.8.33-1.18.5-1.82.86-3.33,1.06-4.46.07-.38.12-.71.15-1.01.09-.43.07-.87-.06-1.28-.25-.41-1.41-.89-3.3-1.41-.31-.08-.64-.17-.98-.26-1.67-.42-3.76-.85-6.21-1.27l-.91-.15-.54-.09c-.3-.05-.61-.1-.92-.15-.44-.07-.89-.14-1.34-.2l-.25-.04-.16-.02c-.6-.09-1.21-.18-1.84-.26-.55-.08-1.1-.15-1.67-.22-.38-.05-.75-.1-1.14-.14-1.09-.14-2.21-.27-3.36-.39-.21-.02-.42-.04-.62-.07-.85-.09-1.7-.18-2.58-.26l-.52-.05c-.1-.01-.2-.02-.3-.03-.43-.04-.87-.08-1.3-.12-1.26-.11-2.54-.22-3.85-.31-.96-.07-1.93-.14-2.9-.2-1.49-.09-3-.18-4.52-.25-.24-.01-.49-.02-.73-.03-2.13-.1-4.28-.17-6.46-.21-.3,0-.6,0-.9-.02h-.7c-.96-.02-1.92-.03-2.88-.03m243.26,2.69h-.03c-1.93,0-3.85.31-5.7.9-.13.05-.26.09-.4.14-.22.08-.45.15-.67.23-.18.07-.35.14-.52.21-.11.05-.23.09-.34.14-.2.08-.38.17-.57.26-.52.24-1.03.49-1.52.77-.39.22-.75.45-1.11.68-.4.26-.78.54-1.14.82l-.25.2c-.95.76-1.79,1.64-2.49,2.63-.14.21-.28.42-.41.63-.26.44-.47.92-.63,1.41-.83-1.27-1.95-2.32-3.26-3.06-.37-.23-.76-.44-1.16-.64-.79-.38-1.6-.71-2.43-.97l-.15-.05-.09-.02-.21-.07c-.58-.17-1.17-.31-1.78-.43l-.18-.04c-.18-.03-.35-.06-.53-.09-.13-.02-.26-.04-.4-.06-.97-.16-1.95-.24-2.92-.24-3.15,0-6.26.84-9.01,2.46h0c-.18.11-.36.24-.54.36-1.27.9-2.37,2.02-3.25,3.32-.08.12-.17.24-.25.36-.4.63-.74,1.3-1.04,1.99l-.06.12-.11.23-.08.21c-.06.16-.11.33-.17.49-.04.11-.08.22-.11.33-.04.11-.08.23-.12.35-.23.78-.36,1.58-.41,2.39-.01.18-.01.36-.02.54.01,2.2.39,4.39,1.12,6.47.04.14.09.28.14.43.08.23.16.46.25.69l.14.38c.77,1.98,1.68,3.91,2.71,5.77.07.12.13.25.2.37.4.72.81,1.43,1.25,2.16.12.21.26.42.39.63l.44.71.27.42.19.3.04.06c.43.66.87,1.33,1.33,1.99.09.13.17.25.26.37.15.22.3.44.45.65l.24.33c.75,1.06,1.53,2.12,2.32,3.17.13.17.26.34.39.51.67.87,1.35,1.74,2.04,2.6.09.11.17.21.26.32l.02.02c.14.18.28.34.41.51l.48.59.1.11c.14.17.28.33.41.5l.52.62c.36.42.71.84,1.07,1.26.12.14.24.28.37.42.23.27.46.53.69.79l.26.29c.55.63,1.1,1.24,1.64,1.84l.34.37c.67.74,1.34,1.45,1.99,2.14.13.14.27.29.41.43l.25.26c.1.11.21.22.31.32,1.05,1.1,2.07,2.12,3.04,3.07.36.35.71.7,1.06,1.03.16.15.31.3.47.45l.23.22c1.23,1.16,2.33,2.15,3.27,2.93.13.11.26.21.38.32.54.45,1.01.81,1.41,1.1.17.12.32.22.45.31.23.19.51.31.81.36.53-.26.98-.64,1.32-1.13.11-.13.23-.26.35-.41,1.19-1.48,2.31-3.01,3.35-4.6.12-.18.24-.36.36-.54.18-.28.37-.56.56-.85.09-.14.17-.27.26-.41.34-.53.68-1.08,1.04-1.65.1-.16.2-.32.3-.48.21-.34.42-.69.63-1.04.06-.1.12-.2.18-.31h0s.12-.2.12-.2l.1-.17c.14-.24.28-.48.43-.72.71-1.21,1.44-2.48,2.16-3.8l.22-.39c.07-.13.15-.26.22-.39.09-.16.17-.31.26-.47.44-.82.88-1.65,1.32-2.5.08-.16.17-.32.25-.48.19-.37.38-.73.56-1.1.13-.27.27-.54.4-.81.12-.24.24-.49.36-.73l.17-.36h0s.05-.11.05-.11c.64-1.32,1.27-2.67,1.87-4.02.1-.21.19-.43.28-.64.41-.94.81-1.88,1.19-2.82l.16-.4c.11-.27.22-.54.33-.81.06-.16.12-.32.19-.48.05-.13.1-.26.15-.39.08-.2.15-.4.22-.6.14-.38.28-.76.42-1.13l.11-.31c.26-.72.51-1.44.74-2.16.06-.17.11-.35.17-.52.17-.52.32-1.03.47-1.54.07-.24.14-.48.21-.72.05-.18.1-.37.15-.55.05-.18.09-.34.13-.5.46-1.7.82-3.43,1.09-5.17.02-.16.05-.31.07-.46.05-.35.09-.7.13-1.04.02-.17.04-.33.05-.49.09-.97.13-1.95.12-2.93-.01-.5-.04-.98-.08-1.45-.05-.6-.14-1.19-.25-1.77-.03-.17-.06-.34-.11-.5-.1-.41-.22-.8-.35-1.18-.05-.15-.1-.29-.15-.43-.18-.47-.4-.93-.65-1.37-.25-.43-.51-.84-.79-1.23-.08-.12-.17-.22-.25-.34-.82-1.1-1.79-2.08-2.89-2.89-.09-.07-.18-.15-.28-.21-.21-.15-.43-.28-.65-.41-.22-.13-.43-.25-.66-.37-.16-.08-.31-.17-.47-.25l-.26-.12-.24-.1c-1.04-.44-2.13-.76-3.25-.94-.18-.03-.37-.06-.55-.09-.69-.08-1.38-.12-2.07-.12m-8.43,70.78c-.36.04-1.19.89-2.33,2.35-.12.16-.24.32-.37.49-.88,1.17-1.93,2.67-3.06,4.42-.5.76-1,1.56-1.53,2.41-.81,1.31-1.65,2.71-2.5,4.2-.05.09-.1.18-.16.27-.26.45-.52.91-.78,1.37-.24.42-.47.86-.71,1.29l-.1.18-.2.36c-.17.31-.34.63-.51.94-.19.36-.38.72-.57,1.08-.5.96-1,1.93-1.49,2.92-.06.13-.12.25-.18.37-.16.33-.32.66-.49.99-.07.16-.15.32-.22.48-.05.11-.11.23-.16.35-.33.69-.66,1.39-.98,2.1-.35.77-.69,1.54-1.03,2.32-.04.09-.08.19-.12.28-.2.46-.39.92-.58,1.38-.08.18-.15.36-.22.55l-.04.1-.05.13c-.27.67-.54,1.34-.79,2.01-.27.71-.53,1.42-.78,2.13-.18.5-.35,1.01-.52,1.51-.17.5-.32,1-.48,1.5-.27.85-.51,1.69-.74,2.53-.06.25-.13.5-.2.74l-.02.09-.05.19c-.2.82-.39,1.62-.54,2.41-.03.17-.07.34-.1.51-.02.12-.04.23-.06.35-.03.16-.05.32-.08.48-.08.46-.14.91-.2,1.35-.02.15-.04.29-.05.44-.08.67-.14,1.34-.17,1.98,0,.2-.02.39-.02.58-.08,1.69.08,3.37.45,5.02.07.25.13.5.21.75.16.5.35.99.57,1.47.07.14.14.28.22.41l.14.26c.2.35.41.67.63.99.52.77,1.1,1.49,1.76,2.14l.03.03.17.15.08.07c.18.17.36.34.55.5l.04.04c.21.17.42.33.64.49.36.27.74.52,1.13.76.11.07.23.13.34.19.15.08.31.16.46.24.24.12.48.23.71.33,1.35.57,2.79.93,4.25,1.06.11,0,.21.02.32.02.4.03.8.04,1.21.04,2.37,0,4.73-.44,6.94-1.3.16-.06.32-.13.48-.2.62-.26,1.23-.54,1.81-.84.09-.05.19-.1.28-.15.27-.14.53-.29.78-.45.22-.14.44-.27.66-.42.16-.1.31-.2.46-.31.1-.07.2-.15.3-.22.42-.32.83-.64,1.21-.98.11-.1.21-.2.31-.3.26-.25.5-.5.72-.75.1-.11.2-.22.29-.33l.11-.14c.1-.12.19-.24.28-.36.17-.23.33-.46.46-.7.3-.49.55-1.02.73-1.56.07.11.15.23.23.34.38.54.82,1.03,1.31,1.47.17.15.35.29.53.44.77.59,1.61,1.11,2.49,1.52.33.15.66.3,1.01.44.44.18.9.34,1.37.48.24.08.48.15.73.22l.18.04.21.05c.27.07.54.13.81.19,1,.21,2.01.34,3.03.41.39.02.78.04,1.17.04.16,0,.31,0,.47,0,.25,0,.49-.01.74-.03.12,0,.24-.01.37-.02.22-.02.43-.04.64-.06,1.1-.12,2.18-.34,3.24-.67.15-.04.3-.09.45-.14.15-.05.3-.1.45-.16h.01c.09-.04.19-.08.28-.12h.02c.33-.14.66-.28.97-.44.11-.06.22-.11.34-.17.33-.17.65-.35.97-.55.21-.13.41-.27.62-.41.64-.45,1.23-.95,1.78-1.51.29-.3.58-.61.85-.95.91-1.14,1.64-2.41,2.16-3.77.1-.25.18-.51.27-.77.05-.14.1-.27.14-.41.51-1.89.58-3.88.21-5.8-.08-.48-.18-.97-.3-1.47-.15-.63-.33-1.26-.54-1.9-.14-.45-.3-.91-.47-1.37l-.06-.17c-.06-.16-.12-.32-.18-.48-.2-.5-.4-1-.62-1.5l-.1-.24c-.59-1.32-1.27-2.67-2.02-4.03-.13-.24-.27-.48-.41-.73-.41-.72-.84-1.43-1.28-2.15-.1-.17-.21-.34-.32-.51h0c-.94-1.5-1.96-3.01-3.03-4.52-.12-.17-.24-.35-.37-.52l-.1-.14c-.15-.22-.31-.43-.47-.65-.33-.45-.66-.89-.99-1.33-.11-.16-.24-.32-.36-.48-.63-.83-1.27-1.65-1.92-2.46l-.23-.3c-.8-1-1.61-1.98-2.42-2.94-.22-.26-.45-.52-.67-.78-.29-.34-.58-.68-.88-1.01-.22-.25-.44-.51-.66-.76-1.02-1.16-2.04-2.29-3.04-3.36l-.22-.24c-.15-.16-.3-.32-.45-.49-.21-.23-.42-.45-.64-.67-1.32-1.39-2.58-2.67-3.77-3.84l-.24-.24c-.77-.75-1.5-1.45-2.19-2.08l-.03-.03-.07-.06c-.74-.69-1.43-1.3-2.06-1.84-.4-.34-.78-.66-1.12-.94-.27-.22-.52-.41-.75-.58-.23-.17-.45-.33-.64-.46-.17-.12-.35-.23-.54-.32-.13-.08-.27-.12-.42-.13m50.81-38.05c-.22,0-.45,0-.67.02-.95.05-1.9.17-2.83.37-.17.04-.34.07-.5.11l-.36.09c-.13.03-.26.07-.4.1h-.01c-.22.06-.44.13-.67.19-.79.23-1.59.5-2.4.82-.11.04-.22.09-.33.13-.73.29-1.47.61-2.22.96-.21.1-.41.19-.62.29-1.65.79-3.33,1.71-5.02,2.73-.16.1-.32.2-.48.3h0c-.25.15-.5.3-.74.46-.13.08-.25.16-.38.24-.73.47-1.47.95-2.2,1.44l-.2.14c-.75.51-1.5,1.03-2.24,1.57-.1.07-.2.14-.3.21-.46.33-.91.66-1.36,1-.14.11-.29.21-.42.32-.76.57-1.52,1.15-2.27,1.74-.31.24-.61.49-.92.73-.23.19-.46.37-.69.56-.15.12-.3.24-.44.36-1.64,1.33-3.23,2.69-4.75,4.04l-.26.23c-1.82,1.62-3.54,3.22-5.12,4.74l-.11.11c-1.18,1.14-2.27,2.23-3.27,3.26-.1.1-.2.2-.29.31-.45.47-.89.92-1.3,1.36-.31.33-.61.65-.89.97l-.16.18c-.1.11-.2.22-.3.33-1.08,1.15-2.06,2.38-2.95,3.69-.16.21-.26.45-.3.7v.02c.05.45,1.3,1.58,3.4,3.12l.47.34c.61.44,1.28.91,2.01,1.39.24.16.48.32.73.49,2.72,1.79,6.11,3.86,9.88,5.93.14.08.28.16.43.23.84.46,1.71.92,2.58,1.38l.4.21c.68.35,1.38.71,2.08,1.06l.43.21.24.12.27.13.06.03h.03c.51.27,1.03.51,1.54.76.13.06.25.12.37.17l1.03.48c.22.1.44.21.66.31.71.32,1.42.64,2.13.95.32.14.64.27.96.41.23.1.47.2.71.29l.05.02c.32.13.63.26.95.39.4.16.8.32,1.2.48.17.06.33.13.49.19.96.37,1.92.73,2.87,1.05.22.07.44.15.65.22.54.18,1.08.36,1.62.53.14.05.29.09.43.13,2.52.79,5.09,1.4,7.7,1.82.19.03.37.05.56.08.92.12,1.82.21,2.69.25.19,0,.37.02.55.02.23,0,.47.01.7.01.96,0,1.92-.07,2.87-.2.42-.06.83-.14,1.22-.23.11-.03.22-.06.34-.09h.01s.03-.01.03-.01l.14-.04c.69-.19,1.37-.44,2.01-.76.18-.09.36-.18.53-.28.1-.06.18-.12.28-.18.38-.23.75-.48,1.1-.73.13-.1.26-.19.39-.29,1.33-1.02,2.46-2.27,3.33-3.7.14-.23.27-.46.39-.69.49-.94.87-1.93,1.12-2.96.02-.1.05-.2.07-.3l.02-.08v-.04s.02-.03.02-.03l.03-.14c.21-1.07.32-2.16.32-3.25v-.04c0-.95-.08-1.89-.24-2.83-.01-.12-.04-.23-.06-.34-.14-.76-.31-1.51-.54-2.25-.07-.24-.15-.48-.23-.72-.93-2.87-2.55-5.47-4.72-7.57-.09-.05-.17-.12-.23-.2-.49-.44-1.03-.83-1.6-1.16-.17-.1-.34-.18-.51-.26-.29-.14-.59-.27-.89-.37.4-.25.77-.53,1.11-.84.22-.2.44-.42.65-.65.33-.38.65-.78.93-1.2.13-.19.26-.39.38-.6.16-.27.32-.55.47-.84.08-.15.15-.29.23-.44.31-.66.59-1.33.81-2.03.04-.12.08-.24.12-.37.1-.33.2-.66.29-1,.05-.22.11-.43.16-.65l.04-.18c.07-.31.13-.63.18-.95.07-.43.13-.86.17-1.3.01-.14.03-.29.04-.43.02-.21.03-.43.04-.64,0-.11.01-.22.02-.33,0-.14.01-.29.01-.43,0-.78-.03-1.57-.11-2.35-.15-1.45-.48-2.87-.98-4.23-.06-.17-.13-.34-.21-.51-.56-1.36-1.34-2.62-2.3-3.74-.13-.15-.26-.3-.39-.45l-.08-.08c-.11-.11-.22-.22-.33-.33-1.08-1.02-2.32-1.87-3.67-2.49-.09-.04-.18-.08-.28-.12l-.21-.1c-.34-.14-.7-.28-1.07-.4-.19-.07-.37-.14-.56-.19-.75-.22-1.53-.36-2.31-.41-.17-.01-.34-.01-.5-.02-.11,0-.22,0-.33-.01m-104.82,12.4c-.71,0-1.43.03-2.14.09l-.2.02c-.12.01-.23.03-.35.05-.31.04-.61.09-.91.14-.23.04-.46.09-.68.14-.15.04-.29.08-.44.12-.89.24-1.76.59-2.56,1.04-.6.35-1.17.73-1.72,1.16l-.26.2c-.19.15-.36.3-.54.46-.19.17-.38.33-.55.5-1.03,1.01-1.89,2.19-2.53,3.48l-.3.64c-.07.17-.14.34-.21.51-.53,1.39-.84,2.85-.93,4.33.03.13.03.26-.02.39v.21s0,.24,0,.24c-.01.65.02,1.29.08,1.94.09.94.25,1.88.48,2.8.27,1.09.63,2.16,1.07,3.2l.1.23c1.71,3.89,4.47,6.97,7.29,7.88l-.09.06c-.17.11-.35.23-.52.36-1.34,1.1-2.4,2.49-3.12,4.06-.05.11-.11.23-.16.35-.24.51-.45,1.04-.64,1.59-.07.19-.12.38-.18.58-.15.47-.28.95-.4,1.44-.03.13-.05.25-.08.38-.1.48-.19.97-.25,1.46-.05.34-.09.68-.12,1.03-.05.53-.08,1.07-.09,1.6,0,.37,0,.73.02,1.09.04,1,.17,2,.37,2.99l.05.23v.02c.29,1.31.75,2.57,1.36,3.77l.06.11.05.1c.34.64.74,1.25,1.18,1.83.26.34.53.67.83.99.71.75,1.51,1.42,2.38,1.98l.24.17c.33.21.68.41,1.05.59.18.09.37.18.56.26.1.05.21.1.32.14.57.25,1.16.47,1.75.65.81.24,1.65.38,2.49.42.23,0,.45.01.68.01,1.04,0,2.08-.1,3.1-.3l.41-.08c1.64-.36,3.24-.86,4.79-1.49.16-.07.33-.13.49-.2.09-.04.18-.08.27-.11.28-.12.55-.24.83-.37.42-.19.85-.39,1.27-.6.49-.24.98-.49,1.48-.74.55-.29,1.11-.6,1.67-.91h0c.12-.07.24-.14.36-.21,3.38-1.97,6.64-4.15,9.75-6.53l.43-.32c2.3-1.75,4.55-3.59,6.69-5.42.09-.07.18-.15.27-.23.55-.48,1.1-.95,1.63-1.43.09-.08.19-.17.28-.25.55-.48,1.08-.96,1.6-1.45.14-.12.27-.25.41-.37l.24-.22c.24-.22.48-.45.72-.67.17-.16.34-.31.5-.47l.04-.04c.39-.36.76-.72,1.13-1.07l.26-.25c.48-.46.95-.92,1.41-1.37.12-.11.23-.22.35-.34.2-.2.4-.4.6-.6.15-.15.3-.31.45-.46.21-.21.41-.41.6-.62l.2-.2c.18-.18.35-.36.52-.54.13-.13.25-.26.38-.4.58-.62,1.13-1.21,1.63-1.76.17-.19.35-.38.51-.57.12-.13.24-.27.35-.4.16-.19.32-.37.47-.54.71-.84,1.27-1.54,1.66-2.09.13-.19.23-.35.33-.49.15-.2.25-.44.28-.69-.32-.63-.8-1.16-1.39-1.55-.14-.12-.29-.25-.46-.38-.78-.63-1.77-1.37-2.96-2.19l-.44-.3-.26-.18-.45-.3c-.21-.14-.43-.29-.66-.44l-.12-.08-.08-.05c-.29-.19-.6-.39-.91-.59-.27-.17-.54-.35-.82-.53-.18-.12-.37-.24-.56-.35-.54-.34-1.1-.68-1.67-1.03l-.31-.19c-.42-.26-.85-.51-1.3-.77l-.26-.15-.15-.09c-.22-.13-.43-.25-.66-.38-.64-.37-1.29-.74-1.95-1.11-.49-.27-.98-.55-1.48-.82-.76-.42-1.54-.83-2.32-1.24-.12-.07-.25-.13-.38-.2-1.1-.57-2.21-1.14-3.35-1.7-.16-.07-.31-.15-.47-.23l-.36-.17c-.61-.3-1.23-.59-1.85-.88-.87-.41-1.75-.81-2.64-1.2-.72-.32-1.44-.62-2.16-.92l-.09-.04-.29-.12c-.54-.22-1.07-.43-1.61-.65l-.53-.2c-.56-.22-1.12-.43-1.69-.64-.26-.09-.52-.18-.77-.28-.98-.35-1.95-.68-2.92-.98-.55-.17-1.1-.34-1.64-.49-2.1-.61-4.23-1.09-6.39-1.43l-.38-.05c-.14-.02-.27-.04-.41-.06-.35-.04-.69-.08-1.03-.12-.87-.09-1.74-.14-2.61-.14" fill="#fde4e7"/></svg>