<?xml version="1.0" encoding="UTF-8"?><svg id="a" xmlns="http://www.w3.org/2000/svg" viewBox="0 0 135.88 135.87"><path d="m76.78,0c.69,0,1.38.04,2.07.12.18.02.37.06.55.09,1.12.18,2.21.5,3.25.94l.24.1.26.12c.16.08.31.17.47.25.22.12.44.24.66.37.22.13.43.26.65.41.1.06.19.14.28.21,1.1.81,2.08,1.79,2.89,2.89.08.12.17.22.25.34.27.39.54.79.79,1.23.25.44.47.9.65,1.37.06.14.1.28.15.43.13.38.25.77.35,1.18.04.17.08.34.11.5.12.59.2,1.18.25,1.77.04.47.07.96.08,1.45.01.98-.02,1.95-.12,2.93-.02.16-.03.33-.05.49-.04.34-.08.69-.13,1.04-.02.15-.04.31-.07.46-.27,1.74-.63,3.47-1.09,5.17-.04.17-.08.32-.13.5-.05.18-.1.37-.15.55-.07.24-.14.48-.21.72-.15.51-.31,1.03-.47,1.54-.06.17-.11.35-.17.52-.24.72-.48,1.44-.74,2.16l-.11.31c-.13.37-.28.75-.42,1.13-.07.2-.15.4-.22.6-.05.13-.1.26-.15.39-.06.16-.12.32-.19.48-.11.27-.21.54-.33.81l-.16.4c-.38.94-.78,1.88-1.19,2.82-.09.21-.18.43-.28.64-.6,1.35-1.23,2.7-1.87,4.02l-.05.1h0s-.17.37-.17.37c-.12.24-.24.49-.36.73-.13.27-.27.54-.4.81-.19.37-.38.74-.56,1.1-.08.16-.16.32-.25.48-.44.84-.88,1.68-1.32,2.5-.09.16-.17.31-.26.47-.07.13-.14.26-.21.39l-.22.39c-.73,1.32-1.45,2.59-2.16,3.8-.14.24-.28.48-.43.72l-.1.17-.12.19h0c-.06.11-.12.21-.18.32-.21.35-.42.7-.63,1.04-.1.16-.2.32-.3.48-.35.57-.7,1.12-1.04,1.65-.09.14-.17.27-.26.41-.19.29-.37.57-.56.85-.13.18-.24.36-.36.54-1.04,1.59-2.16,3.12-3.35,4.6-.12.15-.24.28-.35.41-.33.48-.79.87-1.32,1.13-.3-.05-.57-.17-.81-.36-.14-.09-.29-.19-.45-.31-.39-.28-.86-.65-1.41-1.1-.12-.1-.25-.21-.38-.32-.94-.79-2.04-1.78-3.27-2.93l-.23-.22c-.16-.15-.31-.29-.47-.45-.35-.33-.7-.68-1.06-1.03-.96-.95-1.98-1.98-3.04-3.07-.1-.11-.21-.21-.31-.32l-.25-.26c-.14-.14-.27-.29-.41-.43-.66-.69-1.32-1.41-1.99-2.14l-.34-.37c-.55-.6-1.09-1.21-1.64-1.84l-.26-.29c-.23-.26-.46-.52-.69-.79-.12-.14-.24-.28-.37-.42-.36-.42-.71-.84-1.07-1.26l-.52-.62c-.14-.17-.27-.33-.41-.5l-.1-.11-.48-.59c-.14-.17-.28-.34-.41-.51l-.02-.02c-.09-.11-.18-.21-.26-.32-.69-.86-1.37-1.72-2.04-2.6-.13-.17-.26-.34-.39-.51-.79-1.05-1.57-2.1-2.32-3.17l-.24-.33c-.15-.22-.31-.43-.45-.65-.09-.12-.17-.25-.26-.37-.45-.66-.9-1.33-1.33-1.99l-.04-.06-.19-.3-.27-.42-.44-.71c-.13-.21-.26-.42-.39-.63-.44-.72-.85-1.44-1.25-2.16-.07-.12-.13-.25-.2-.37-1.03-1.86-1.94-3.79-2.71-5.77l-.14-.38c-.08-.23-.17-.46-.25-.69-.05-.14-.09-.29-.14-.43-.73-2.08-1.11-4.27-1.13-6.47,0-.18,0-.37.02-.54.05-.81.18-1.61.41-2.39.04-.12.09-.24.12-.35.04-.11.08-.22.11-.33.06-.17.11-.33.17-.49l.08-.21.11-.23.06-.12c.29-.69.64-1.35,1.04-1.99.08-.13.16-.24.25-.36.88-1.29,1.98-2.41,3.25-3.32.18-.13.35-.25.54-.37h0c2.74-1.62,5.86-2.46,9.01-2.46.97,0,1.95.08,2.92.24.13.02.27.04.4.06.18.03.35.06.53.09l.18.04c.61.12,1.2.26,1.78.43l.21.07.09.02.15.05c.83.26,1.65.59,2.43.97.41.2.8.41,1.16.64,1.31.75,2.43,1.8,3.26,3.06.16-.49.37-.96.63-1.41.13-.21.26-.42.41-.63.7-.99,1.54-1.88,2.49-2.63l.25-.2c.36-.28.74-.55,1.14-.82.36-.24.73-.47,1.11-.68.49-.28.99-.53,1.52-.77.19-.09.38-.18.57-.26.11-.05.23-.09.34-.14.17-.07.34-.14.52-.21.22-.08.44-.16.67-.23.13-.04.26-.09.39-.14,1.84-.6,3.77-.9,5.7-.9h.03m-8.43,70.78c-.36.04-1.19.89-2.33,2.35-.12.16-.25.32-.37.49-.88,1.17-1.93,2.67-3.06,4.42-.5.76-1,1.56-1.53,2.41-.81,1.31-1.65,2.72-2.5,4.2-.05.09-.1.18-.16.27-.26.45-.52.91-.78,1.37-.24.43-.47.86-.71,1.29l-.1.18-.2.36c-.17.31-.34.63-.51.94-.19.36-.38.72-.57,1.08-.5.96-1,1.93-1.49,2.92-.06.13-.12.25-.18.37-.16.33-.32.66-.49.99-.07.16-.15.32-.22.48-.05.11-.11.23-.16.35-.33.69-.66,1.39-.98,2.1-.35.77-.69,1.54-1.03,2.32-.04.09-.08.19-.12.28-.2.46-.39.92-.58,1.38-.08.18-.15.36-.22.55l-.04.1-.05.13c-.27.67-.54,1.34-.79,2.01-.27.71-.53,1.42-.78,2.13-.18.5-.35,1.01-.52,1.51-.17.5-.32,1-.48,1.5-.27.85-.51,1.69-.74,2.53-.06.25-.13.5-.2.74l-.02.09-.05.19c-.2.82-.39,1.62-.54,2.41-.03.17-.07.34-.1.51-.02.12-.04.23-.06.35-.03.16-.05.32-.08.48-.08.46-.14.91-.2,1.35-.02.15-.04.29-.05.44-.08.67-.14,1.34-.17,1.98,0,.2-.02.39-.02.58-.08,1.69.08,3.37.45,5.02.07.25.13.5.21.75.16.5.35.99.57,1.47.07.14.14.28.22.41l.14.26c.2.35.41.67.63.99.52.77,1.1,1.49,1.76,2.14l.03.03.17.15.08.07c.18.17.36.34.55.5l.04.04c.21.18.42.33.64.49.36.27.74.52,1.13.76.11.07.23.13.34.19.15.08.31.16.46.24.24.12.48.23.71.33,1.35.57,2.79.93,4.25,1.06.11,0,.21.02.32.02.4.03.8.04,1.21.04,2.37,0,4.73-.44,6.94-1.3.16-.06.32-.13.49-.2.62-.26,1.23-.54,1.81-.84.09-.05.19-.1.28-.15.27-.14.52-.29.78-.45.22-.14.44-.27.66-.42.16-.1.31-.2.46-.31.1-.07.2-.15.3-.22.42-.32.83-.64,1.21-.98.11-.1.21-.2.31-.3.26-.25.5-.5.72-.75.1-.11.2-.22.29-.33l.11-.14c.1-.12.19-.24.28-.36.17-.23.32-.46.46-.7.3-.49.55-1.02.73-1.56.07.11.15.23.23.34.38.54.82,1.03,1.31,1.47.17.15.35.29.53.44.77.59,1.61,1.11,2.49,1.52.33.15.66.3,1.01.44.44.18.9.34,1.37.48.24.08.48.15.73.22l.18.04.21.05c.27.07.54.13.81.19,1,.21,2.01.34,3.03.41.39.02.78.04,1.17.04.16,0,.31,0,.47,0,.25,0,.49-.01.74-.03.12,0,.25-.01.37-.02.22-.02.43-.04.64-.06,1.1-.12,2.18-.34,3.24-.67.15-.04.3-.09.45-.14.15-.05.3-.1.45-.16h.01c.09-.04.19-.08.28-.12h.02c.33-.14.66-.28.97-.44.11-.06.22-.11.34-.17.33-.17.65-.35.97-.55.21-.13.42-.27.62-.41.64-.45,1.23-.95,1.78-1.51.29-.3.58-.61.85-.95.91-1.14,1.64-2.41,2.16-3.77.1-.25.18-.51.27-.77.05-.14.1-.27.14-.41.51-1.89.58-3.88.21-5.8-.08-.48-.18-.97-.3-1.47-.15-.63-.33-1.26-.54-1.9-.14-.45-.3-.91-.47-1.37l-.06-.17c-.06-.16-.12-.32-.18-.48-.2-.5-.4-1-.62-1.5l-.1-.24c-.59-1.32-1.27-2.67-2.02-4.03-.13-.24-.27-.48-.41-.73-.41-.72-.84-1.43-1.28-2.15-.1-.17-.21-.34-.32-.51h0c-.94-1.5-1.96-3.01-3.03-4.52-.12-.17-.24-.35-.37-.52l-.1-.14c-.15-.22-.31-.43-.47-.65-.33-.45-.66-.89-.99-1.33-.11-.16-.24-.32-.36-.48-.63-.83-1.27-1.65-1.92-2.46l-.23-.3c-.8-1-1.61-1.98-2.42-2.94-.22-.26-.45-.52-.67-.78-.29-.34-.58-.68-.88-1.01-.22-.25-.44-.51-.66-.76-1.02-1.16-2.04-2.29-3.04-3.36l-.22-.24c-.15-.16-.3-.32-.45-.49-.21-.23-.42-.45-.64-.67-1.32-1.39-2.58-2.67-3.77-3.84l-.24-.24c-.77-.75-1.5-1.45-2.19-2.08l-.03-.03-.07-.06c-.74-.69-1.43-1.31-2.06-1.84-.4-.34-.78-.66-1.12-.94-.27-.22-.52-.41-.75-.58-.23-.17-.45-.33-.64-.46-.17-.12-.35-.23-.54-.32-.13-.08-.27-.12-.42-.13m50.81-38.05c-.22,0-.45,0-.67.02-.95.05-1.9.17-2.83.37-.17.04-.34.07-.5.11l-.36.09c-.13.03-.26.07-.4.1h-.01c-.22.06-.44.13-.67.19-.79.23-1.59.5-2.4.82-.11.04-.22.09-.33.13-.73.29-1.47.61-2.22.96-.21.1-.41.19-.62.29-1.65.79-3.33,1.71-5.02,2.73-.16.1-.32.2-.48.3h0c-.25.15-.5.3-.74.46-.13.08-.25.16-.38.24-.73.47-1.47.95-2.2,1.44l-.2.14c-.75.51-1.5,1.03-2.24,1.57-.1.07-.2.14-.3.21-.46.33-.91.66-1.36,1-.14.11-.29.21-.42.32-.76.57-1.52,1.15-2.27,1.74-.31.24-.61.49-.92.73-.23.19-.46.37-.69.56-.15.12-.3.24-.44.36-1.64,1.33-3.23,2.69-4.75,4.04l-.26.23c-1.82,1.62-3.54,3.22-5.12,4.74l-.11.11c-1.18,1.14-2.27,2.23-3.27,3.26-.1.1-.2.2-.29.31-.45.47-.89.92-1.3,1.36-.31.33-.61.65-.89.97l-.16.18c-.1.11-.2.22-.3.33-1.08,1.15-2.06,2.38-2.95,3.69-.16.21-.26.45-.3.7v.02c.05.45,1.3,1.58,3.4,3.12l.47.34c.61.44,1.28.91,2.01,1.39.24.16.48.32.73.49,2.72,1.79,6.11,3.86,9.88,5.93.14.08.28.16.43.23.84.46,1.71.92,2.58,1.38l.4.21c.68.35,1.38.71,2.08,1.06l.43.21.24.12.27.13.06.03h.03c.51.27,1.03.51,1.54.76.13.06.25.12.37.17l1.03.48c.22.1.44.21.66.31.71.32,1.42.64,2.13.95.32.14.64.27.96.41.23.1.47.2.71.29l.05.02c.32.13.63.26.95.39.4.16.8.32,1.2.48.17.06.33.13.49.19.96.37,1.92.73,2.87,1.05.22.07.44.15.65.22.54.18,1.08.36,1.62.53.14.05.29.09.43.13,2.52.79,5.09,1.4,7.7,1.82.19.03.37.05.56.08.92.12,1.82.21,2.69.25.19,0,.37.02.55.02.23,0,.47.01.7.01.96,0,1.92-.07,2.87-.2.42-.06.83-.14,1.22-.23.11-.03.22-.06.34-.09h.01s.03-.01.03-.01l.14-.04c.69-.19,1.37-.44,2.01-.76.18-.09.36-.18.53-.28.1-.06.18-.12.28-.18.38-.23.75-.48,1.1-.73.13-.1.26-.19.39-.29,1.33-1.02,2.46-2.27,3.33-3.7.14-.23.27-.46.39-.69.49-.94.87-1.94,1.12-2.96.02-.1.05-.2.07-.3l.02-.08v-.04s.02-.03.02-.03l.03-.14c.21-1.07.32-2.16.32-3.25v-.04c0-.95-.08-1.89-.24-2.83-.01-.12-.04-.23-.06-.34-.14-.76-.31-1.51-.54-2.25-.07-.24-.15-.48-.23-.72-.93-2.87-2.55-5.47-4.72-7.57-.09-.05-.17-.12-.23-.2-.49-.44-1.03-.83-1.6-1.16-.17-.1-.34-.18-.51-.26-.29-.14-.59-.27-.89-.37.4-.25.77-.53,1.11-.84.22-.2.44-.42.65-.65.33-.38.64-.78.93-1.2.13-.19.26-.39.38-.6.16-.27.32-.55.47-.84.08-.15.15-.29.23-.44.31-.66.59-1.33.81-2.03.04-.12.08-.24.12-.37.1-.33.2-.66.29-1,.05-.22.11-.43.16-.65l.04-.18c.07-.31.13-.63.18-.95.07-.43.13-.86.17-1.3.01-.14.03-.29.04-.43.02-.21.03-.43.04-.64,0-.11.01-.22.02-.33,0-.14.01-.29.01-.43,0-.78-.03-1.57-.11-2.35-.15-1.45-.48-2.87-.99-4.23-.06-.17-.13-.34-.21-.51-.56-1.36-1.34-2.62-2.3-3.74-.13-.15-.26-.3-.39-.45l-.08-.08c-.11-.11-.22-.22-.33-.33-1.08-1.02-2.32-1.87-3.67-2.49-.09-.04-.18-.08-.28-.12l-.21-.1c-.34-.14-.7-.28-1.07-.4-.19-.07-.37-.14-.56-.19-.75-.22-1.53-.36-2.31-.41-.17-.01-.34-.01-.5-.02-.11,0-.22,0-.33-.01M14.34,45.13c-.71,0-1.43.03-2.14.09l-.2.02c-.12.01-.23.03-.35.05-.31.04-.61.09-.91.14-.23.04-.46.09-.68.14-.15.04-.29.08-.44.12-.89.24-1.76.59-2.56,1.04-.6.35-1.17.73-1.72,1.16l-.26.2c-.19.15-.36.3-.54.46-.19.17-.38.33-.55.5-1.03,1.01-1.89,2.19-2.53,3.48l-.3.64c-.07.17-.14.34-.21.51-.53,1.39-.84,2.85-.93,4.33.04.13.03.26-.02.39v.21s0,.24,0,.24c-.01.65.02,1.29.08,1.94.09.94.25,1.88.48,2.8.27,1.09.63,2.16,1.06,3.2l.1.23c1.71,3.89,4.47,6.97,7.3,7.88l-.09.06c-.17.11-.35.23-.52.36-1.34,1.1-2.4,2.49-3.12,4.06-.05.11-.11.23-.16.35-.24.51-.45,1.04-.64,1.59-.07.19-.12.38-.18.58-.15.47-.28.95-.4,1.44-.03.13-.05.25-.08.38-.1.48-.19.97-.25,1.46-.05.34-.09.68-.12,1.03-.05.53-.07,1.07-.09,1.6,0,.37,0,.73.02,1.09.04,1,.17,2,.37,2.99l.05.23v.02c.29,1.31.75,2.57,1.36,3.77l.06.11.05.1c.34.64.74,1.25,1.18,1.83.26.34.53.67.83.99.71.75,1.51,1.42,2.38,1.98l.24.17c.33.21.68.41,1.05.59.18.09.37.18.56.26.1.05.21.1.32.14.57.25,1.16.47,1.75.65.81.24,1.65.38,2.49.42.23,0,.45.01.68.01,1.04,0,2.08-.1,3.1-.3l.41-.08c1.64-.36,3.24-.86,4.79-1.49.16-.07.33-.13.49-.2.09-.04.18-.08.27-.11.28-.12.55-.24.83-.37.42-.19.85-.39,1.27-.6.49-.24.99-.49,1.48-.74.55-.29,1.11-.6,1.67-.91h0c.12-.07.24-.14.36-.21,3.38-1.97,6.64-4.15,9.75-6.53l.43-.32c2.3-1.75,4.55-3.59,6.69-5.42.09-.07.18-.15.27-.23.55-.48,1.1-.95,1.63-1.43.09-.08.19-.17.28-.25.55-.48,1.08-.96,1.6-1.45.14-.12.27-.25.41-.37l.24-.22c.24-.22.48-.45.72-.67.17-.16.34-.31.5-.47l.04-.04c.39-.36.76-.72,1.13-1.07l.26-.25c.48-.46.95-.92,1.41-1.37.12-.11.23-.22.35-.34.2-.2.4-.4.6-.6.15-.15.3-.31.45-.46.21-.21.41-.41.6-.62l.2-.2c.18-.18.35-.36.52-.54.13-.13.25-.26.38-.4.58-.62,1.13-1.21,1.63-1.76.17-.19.35-.38.51-.57.12-.13.24-.27.35-.4.16-.19.32-.37.47-.54.71-.84,1.27-1.54,1.66-2.09.13-.19.23-.35.33-.49.15-.2.25-.44.28-.69-.32-.63-.8-1.16-1.39-1.55-.14-.12-.29-.25-.46-.38-.77-.63-1.77-1.37-2.96-2.19l-.44-.3-.26-.18-.45-.3c-.21-.14-.43-.29-.66-.44l-.12-.08-.08-.05c-.29-.19-.6-.39-.91-.59-.27-.17-.54-.35-.82-.53-.18-.12-.37-.24-.56-.35-.54-.34-1.1-.68-1.67-1.03l-.31-.19c-.42-.25-.85-.51-1.3-.77l-.26-.15-.15-.09c-.22-.13-.43-.25-.66-.38-.64-.37-1.29-.74-1.95-1.11-.49-.27-.98-.55-1.48-.82-.76-.42-1.54-.83-2.32-1.24-.12-.07-.25-.13-.38-.2-1.1-.57-2.21-1.14-3.35-1.7-.16-.07-.31-.15-.47-.23l-.36-.18c-.61-.3-1.23-.59-1.85-.88-.87-.41-1.75-.81-2.64-1.2-.72-.32-1.44-.62-2.16-.92l-.09-.04-.29-.12c-.54-.22-1.07-.43-1.61-.65l-.53-.2c-.56-.22-1.12-.43-1.69-.64-.26-.09-.52-.18-.77-.28-.98-.35-1.95-.68-2.92-.98-.55-.17-1.1-.34-1.64-.49-2.1-.61-4.23-1.09-6.39-1.43l-.38-.05c-.14-.02-.27-.04-.41-.06-.35-.04-.69-.08-1.03-.12-.87-.09-1.74-.14-2.61-.14" fill="#fde4e7"/></svg>