<?xml version="1.0" encoding="UTF-8"?><svg xmlns="http://www.w3.org/2000/svg" width="252.49" height="238.98" viewBox="0 0 252.49 238.98"><g id="a"><rect x="-.02" y=".29" width="252" height="239" fill="#fff"/></g><g id="b"><g><path d="m118.31,67.06s-.13-8.63,9.4-9.34c9.53-.71,11.96.24,14.24-3.69,2.28-3.93,5.37-.31,11.92-2.01,6.55-1.71,10.44-7,15.63-1.71,5.19,5.3,3.18,5.51,8.76,7.09,5.58,1.58,7.45,2.35,9.52,8.96,2.07,6.61,3.67,8.61,6.32,9.2,2.65.59,4.9,5.27,3.59,7.41-1.31,2.14.02,5.87,4.21,6.84,4.19.97-1.91,29.92-12.67,36.59-10.76,6.67-73.23,5.26-70.92-59.35Z" fill="#75a342"/><path d="m56.67,104.64c-3.81-7.39-2.33-19.04.42-25.89,0,0,3.2-7.96,7.32-8.88,4.12-.92,7.35.34,9.96-3.42,2.6-3.76,3.34-5.1,7.72-5.13,4.38-.04,6.41-1.86,7.64-4.14,1.23-2.29,7.42-9.13,14.05-1.03,15.02,18.37-6.93,40.93-22.42,50.69-6.99,4.4-17.18,7.9-23.32-.05-.51-.66-.96-1.38-1.36-2.15Z" fill="#75a342"/><path d="m112.56,72.84c.81-.63,1.72-1.15,2.73-1.51,8.79-3.19,17.41-5.75,26.89-5.16,7.04.43,14.59,2.07,20.84,5.42,7.37,3.95,10.92,10.68,10.78,18.95-.15,8.7-1.29,18.29-8.27,24.29-5.59,4.8-13.24,6.38-20.4,6.84-7.38.47-14.76-1.04-21.08-4.96-9.67-6-16.92-17.73-17.21-29.21-.13-5.04,1.54-11.4,5.73-14.66Z" fill="#c3d94e"/><g><path d="m168.82,67.59c-3.36-2.09-6.44-2.58-8.02.67-2.71,5.58-.61,7.44-4.83,10.84-4.21,3.4-5.08,7.07-5.26,9.3-.18,2.23-2.74,5.95-4.91,7.27s-5.05,6.7-5.15,12.5c-.1,5.8,1.54,7.68-1.07,12.49-2.61,4.81,1.43,10.39,4.1,12.11,2.67,1.72,1.45,5.18,1.37,6.11-.08.93-6.69,8.44-3.99,14.28,2.7,5.84,2.92,8.48,1.06,11.33-1.86,2.84-2.19,15.93,11.17,17.4,13.36,1.48,34.31-38.96,38.09-57.55,4-19.66-5-45.82-22.56-56.75Z" fill="#8ec43e"/><path d="m163.18,85.48c-.16.04-.32.11-.46.22-.58.41-.76,1.23-.62,1.93.14.7.53,1.32.89,1.93,2.72,4.53,4.61,9.55,5.55,14.75-3.41-1.13-6.86-2.11-10.36-2.92-.69-.16-1.67-.14-1.81.56-.11.55.47.97.96,1.24,3.09,1.66,6.24,3.21,9.44,4.64.95.43,1.93.86,2.69,1.57,1.42,1.32,1.79,3.28,2.28,5.07.53,1.93,1.38,3.72,1.9,5.65.06.23.12.48.04.7-.15.4-.67.51-1.1.54-4.49.23-8.64-2.21-13.02-3.18-.51-.11-1.04-.21-1.54-.09-.51.12-.99.49-1.08,1-.11.6.34,1.16.81,1.54.9.72,1.99,1.15,3.07,1.55,2.75,1.02,5.52,1.95,8.31,2.86,1.75.57,5.03,1.01,6.33,2.45.96,1.07,1.88,10.32,2.74,11.33.85,1.01,4,3.7,3.9-4.17-.04-3.05-.47-6.09-1.3-9.03-.88-3.12-1.55-5.72-.2-8.82,1.01-2.33,2.63-4.58,3.85-6.81.69-1.27,2.27-3.5,1.55-5.09-.74-1.64-2.38,1.21-2.77,1.82-1.26,2-5.59,9.21-7.85,3.33-.5-1.3-.95-2.65-1.03-4.05-.1-1.85.28-2.58,1-4.16,1.38-3.03,2.55-6.16,3.48-9.36.39-1.33.73-2.77.26-4.07-.18-.49-.65-1-1.13-.82-.29.11-.43.43-.55.71-1.69,4.09-3.38,8.17-5.07,12.26-1.64-4.67-3.32-9.42-6.24-13.42-.4-.55-.85-1.1-1.44-1.44-.45-.25-1-.35-1.48-.22Z" fill="#d9e480"/><path d="m168.82,67.59c-3.36-2.09-6.44-2.58-8.02.67-2.71,5.58-.61,7.44-4.83,10.84-4.21,3.4-5.08,7.07-5.26,9.3-.18,2.23-2.74,5.95-4.91,7.27s-5.05,6.7-5.15,12.5c-.1,5.8,1.54,7.68-1.07,12.49-2.61,4.81,1.43,10.39,4.1,12.11,2.67,1.72,1.45,5.18,1.37,6.11-.08.93-6.69,8.44-3.99,14.28,2.7,5.84,2.92,8.48,1.06,11.33-1.86,2.84-2.19,15.93,11.17,17.4,13.36,1.48,34.31-38.96,38.09-57.55,4-19.66-5-45.82-22.56-56.75Z" fill="none"/></g><g><path d="m68.01,87.04c7.2-10.97,18.73-19.3,31.55-21.2,22.76-3.36,25.61-1.63,27.35,2.26,1.74,3.89-.07,9.92,5.93,12.1,6,2.18,7.38,5.85,6.5,11.96-.88,6.11-2.02,8.64,2.85,10.91,4.87,2.27,5.94,7.42,5.19,12.04-.76,4.62-1.98,8.08,1.98,10.09,3.95,2.01,4.22,7.84,3.74,11.36-.48,3.52,1.86,4.65,3.9,7.25,2.03,2.6,4.29,16.09,1.54,22.23-2.75,6.14-12.29,21.83-39.61,19.21-27.31-2.63-53.24-31.19-58.28-65.41-.62-4.22-.61-8.58-.11-12.81.83-7.04,3.49-13.92,7.47-19.99Z" fill="#aacf52"/><path d="m73.64,96.28s-.17,4.29,1.08,11.89c1.25,7.59,4.88,22.5,8.7,26.19,3.82,3.69,4.39,5.85,4.39,5.85,0,0-.53,6.45-2.96,13.18-2.43,6.73-4.54,9.74-3.56,10.81.98,1.07,8.85,8.47,9.41,8.91.56.44,9.14-26.73,9.67-28.56.53-1.83,14.1-7.45,21.9-8.87,7.8-1.42,15.64-5.64,14.66-7.41-.98-1.77-10.32.27-17,1.78-6.68,1.51-15.47,3.59-17.33,3.44-1.86-.15,3.45-14.54,5.26-16.06,1.81-1.52,19.74-11.28,21.58-12.44s1.45-3.38-3.17-1.82c-4.62,1.55-15.41,5.16-15.41,5.16l9.85-28.59s1.9-4.9-.3-5.46c-2.2-.56-11.86,15.69-13.68,21.16-1.82,5.47-2.42,5.92-2.42,5.92,0,0-3.91-.45-6.78-10.99-2.87-10.54-3.94-13.44-5.8-13.59-1.86-.15-1.58,7.74.32,14.26,1.9,6.52,5.95,14.16,6.77,15.54.82,1.38,1.24.85.14,5.07-1.1,4.22-5.82,16-5.82,16,0,0-2.59,1.85-4.23-.91-1.65-2.76-8.21-11.73-9.69-18.78-1.48-7.05-3.28-14.69-5.59-11.7Z" fill="#d9e480"/><path d="m68.01,87.04c7.2-10.97,18.73-19.3,31.55-21.2,22.76-3.36,25.61-1.63,27.35,2.26,1.74,3.89-.07,9.92,5.93,12.1,6,2.18,7.38,5.85,6.5,11.96-.88,6.11-2.02,8.64,2.85,10.91,4.87,2.27,5.94,7.42,5.19,12.04-.76,4.62-1.98,8.08,1.98,10.09,3.95,2.01,4.22,7.84,3.74,11.36-.48,3.52,1.86,4.65,3.9,7.25,2.75,3.52,2.91,10.81,2.8,15.04-.51,20.42-24.04,28.01-40.87,26.39-27.31-2.63-53.24-31.19-58.28-65.41-.62-4.22-.61-8.58-.11-12.81.83-7.04,3.49-13.92,7.47-19.99Z" fill="none"/></g><path d="m138.58,183.12s-10.64,10.94-39.48,6.4c0,0-28.57-1.78-45.73-29.91,0,0-9.17-18.99-6.69-43,0,0,1.79-12.59,3.13-19.72,0,0,10.28,11.59,13.34,13.84,3.06,2.25,13.33,4.95,15.5,11.94,2.17,7,5.64,10.28,10.96,12.47,5.31,2.19,8.09,10.91,8.63,13.45.54,2.54,6,5.99,8.91,6.98,2.91.99,7.84,7.89,9.08,10.99,1.24,3.1,3.16,4.26,7.68,5.38,4.52,1.12,6.71,4.8,8.3,6.68,1.59,1.88,1.9,4.15,6.37,4.52Z" fill="#84b33e"/><path d="m101.8,190s-13.53-2.51-20.55-11.23c-7.02-8.71-9.11-10.63-14.67-12.84-5.56-2.21-9.88-7.31-9.76-8.8.12-1.49,6.69,2.92,8.84,4.04,2.16,1.11,2.51,1.33,1.98-1.33-.53-2.67-9.1-23.6-9.48-28.13-.38-4.53.81-5.22,1.65-4.1.84,1.12,4.82,11.94,6.37,15.81,1.55,3.87,2.89,5.86,3.52,4.97.63-.88,5.46-9.48,6.69-10.69,1.22-1.21,1.55,1.63.53,4.91-1.02,3.29-3.42,11.89-3.35,13.4.06,1.5.34,2.65,2.83,6.6s4.16,6.34,5.93,5.36c1.77-.98,5.63-11.52,6.64-12.37,1.01-.85,3.49-1.4,2.02,2.79-1.47,4.19-4.03,14.84-3.65,16.93.39,2.09,3.76,6.68,12.32,9.63,8.56,2.95,10.06,5.17,7.99,5.26-2.07.09-5.85-.22-5.85-.22Z" fill="#b6d56a"/><path d="m138.58,183.12s-10.64,10.94-39.48,6.4c0,0-28.57-1.78-45.73-29.91,0,0-9.17-18.99-6.69-43,0,0,1.79-12.59,3.13-19.72,0,0,10.28,11.59,13.34,13.84,3.06,2.25,13.33,4.95,15.5,11.94,2.17,7,5.64,10.28,10.96,12.47,5.31,2.19,8.09,10.91,8.63,13.45.54,2.54,6,5.99,8.91,6.98,2.91.99,7.84,7.89,9.08,10.99,1.24,3.1,3.16,4.26,7.68,5.38,4.52,1.12,6.71,4.8,8.3,6.68,1.59,1.88,1.9,4.15,6.37,4.52Z" fill="none"/><path d="m140.67,182.04s2.6-7.28,6.36-13.46c3.76-6.18,8.36-10.55,9.31-12.97.95-2.42,4.46-5.62,8.1-7.32,3.64-1.7,5.43-11.29,5.88-13.75.45-2.46,2.28-6.46,11.89-10.96s20.09-25.61,21.25-33.5c3.01,8.62,3.08,17.68,2.5,26.69-.53,8.2-1.87,16.36-4.21,24.24-3.71,12.5-10.03,24.38-19.51,33.46-5.83,5.59-13.36,9.69-21.39,10.89-2.05.31-21.41.16-20.17-3.33Z" fill="#84b33e"/><path d="m155.02,183.68s14.7-10.17,17.7-14.79c3-4.62,3.36-4.4.54-6.51-2.82-2.11-9.18-6.75-8.76-7.28.42-.53.29-1.29,6.51.54,6.22,1.82,8.88,3.54,11.38,2.81,2.5-.73,3.44-3.09,3.05-5.18-.39-2.09-8.98-11.42-9.25-12.75-.26-1.33.85-1.24,2.79.23,1.94,1.47,7.94,5.9,10.2,5.71,2.26-.19,6.4-14.02,8.66-20.98,2.26-6.96,3.7-15.27,4.49-13.52.79,1.75-5.02,26.74-7.24,33.3-2.23,6.56-17.25,30.54-30.36,35.76,0,0-5.98,2.16-9.71,2.65Z" fill="#b6d56a"/><path d="m140.67,182.04s2.6-7.28,6.36-13.46c3.76-6.18,8.36-10.55,9.31-12.97.95-2.42,4.46-5.62,8.1-7.32,3.64-1.7,5.43-11.29,5.88-13.75.45-2.46,2.28-6.46,11.89-10.96s20.09-25.61,21.25-33.5c3.01,8.62,3.08,17.68,2.5,26.69-.53,8.2-1.87,16.36-4.21,24.24-3.71,12.5-10.03,24.38-19.51,33.46-5.83,5.59-13.36,9.69-21.39,10.89-2.05.31-21.41.16-20.17-3.33Z" fill="none"/></g></g></svg>